<?xml version="1.0" encoding="UTF-8" standalone="no"?>
<!-- Created with Inkscape (http://www.inkscape.org/) -->

<svg
   xmlns:dc="http://purl.org/dc/elements/1.1/"
   xmlns:cc="http://creativecommons.org/ns#"
   xmlns:rdf="http://www.w3.org/1999/02/22-rdf-syntax-ns#"
   xmlns:svg="http://www.w3.org/2000/svg"
   xmlns="http://www.w3.org/2000/svg"
   xmlns:sodipodi="http://sodipodi.sourceforge.net/DTD/sodipodi-0.dtd"
   xmlns:inkscape="http://www.inkscape.org/namespaces/inkscape"
   width="231.21246mm"
   height="143.40381mm"
   viewBox="0 0 819.25676 508.12373"
   id="svg4407"
   version="1.1"
   inkscape:version="0.91 r13725"
   sodipodi:docname="SFM.svg">
  <defs
     id="defs4409">
    <marker
       inkscape:stockid="Arrow2Lend"
       orient="auto"
       refY="0"
       refX="0"
       id="Arrow2Lend"
       style="overflow:visible"
       inkscape:isstock="true">
      <path
         id="path6913"
         style="fill:#808080;fill-opacity:1;fill-rule:evenodd;stroke:#808080;stroke-width:0.625;stroke-linejoin:round;stroke-opacity:1"
         d="M 8.7185878,4.0337352 -2.2072895,0.01601326 8.7185884,-4.0017078 c -1.7454984,2.3720609 -1.7354408,5.6174519 -6e-7,8.035443 z"
         transform="matrix(-1.1,0,0,-1.1,-1.1,0)"
         inkscape:connector-curvature="0" />
    </marker>
    <marker
       inkscape:stockid="Arrow1Mend"
       orient="auto"
       refY="0"
       refX="0"
       id="Arrow1Mend"
       style="overflow:visible"
       inkscape:isstock="true">
      <path
         id="path6901"
         d="M 0,0 5,-5 -12.5,0 5,5 0,0 Z"
         style="fill:#000000;fill-opacity:1;fill-rule:evenodd;stroke:#000000;stroke-width:1pt;stroke-opacity:1"
         transform="matrix(-0.4,0,0,-0.4,-4,0)"
         inkscape:connector-curvature="0" />
    </marker>
    <clipPath
       id="clipPath5516"
       clipPathUnits="userSpaceOnUse">
      <path
         inkscape:connector-curvature="0"
         id="path5518"
         d="m 0,0 4125,0 0,2925 L 0,2925 0,0 Z" />
    </clipPath>
    <clipPath
       clipPathUnits="userSpaceOnUse"
       id="clipPath5810">
      <rect
         style="opacity:1;fill:none;fill-opacity:1;stroke:#000000;stroke-width:0.80000001;stroke-linecap:round;stroke-linejoin:round;stroke-miterlimit:4;stroke-dasharray:none;stroke-dashoffset:0;stroke-opacity:1"
         id="rect5812"
         width="216"
         height="251.42856"
         x="177.5255"
         y="-269.84799"
         transform="scale(1,-1)" />
    </clipPath>
    <clipPath
       clipPathUnits="userSpaceOnUse"
       id="clipPath5810-3">
      <rect
         style="opacity:1;fill:none;fill-opacity:1;stroke:#000000;stroke-width:0.80000001;stroke-linecap:round;stroke-linejoin:round;stroke-miterlimit:4;stroke-dasharray:none;stroke-dashoffset:0;stroke-opacity:1"
         id="rect5812-6"
         width="216"
         height="251.42856"
         x="177.5255"
         y="-269.84799"
         transform="scale(1,-1)" />
    </clipPath>
    <clipPath
       id="clipPath5516-7"
       clipPathUnits="userSpaceOnUse">
      <path
         inkscape:connector-curvature="0"
         id="path5518-5"
         d="m 0,0 4125,0 0,2925 L 0,2925 0,0 Z" />
    </clipPath>
  </defs>
  <sodipodi:namedview
     id="base"
     pagecolor="#ffffff"
     bordercolor="#666666"
     borderopacity="1.0"
     inkscape:pageopacity="0.0"
     inkscape:pageshadow="2"
     inkscape:zoom="0.7"
     inkscape:cx="509.06672"
     inkscape:cy="153.82614"
     inkscape:document-units="px"
     inkscape:current-layer="g6785"
     showgrid="false"
     fit-margin-top="0"
     fit-margin-left="0"
     fit-margin-right="0"
     fit-margin-bottom="0"
     inkscape:window-width="1535"
     inkscape:window-height="876"
     inkscape:window-x="65"
     inkscape:window-y="24"
     inkscape:window-maximized="1" />
  <metadata
     id="metadata4412">
    <rdf:RDF>
      <cc:Work
         rdf:about="">
        <dc:format>image/svg+xml</dc:format>
        <dc:type
           rdf:resource="http://purl.org/dc/dcmitype/StillImage" />
        <dc:title></dc:title>
      </cc:Work>
    </rdf:RDF>
  </metadata>
  <g
     inkscape:label="Layer 1"
     inkscape:groupmode="layer"
     id="layer1"
     transform="translate(26.124299,-17.06058)">
    <g
       transform="matrix(1.25,0,0,-1.25,-26.124299,410.81058)"
       inkscape:label="ink_ext_XXXXXX"
       id="g6074">
      <g
         transform="scale(0.1,0.1)"
         id="g6076">
        <path
           inkscape:connector-curvature="0"
           id="path6078"
           style="fill:#ffffff;fill-opacity:1;fill-rule:nonzero;stroke:none"
           d="m 0,0 4200,0 0,3150 L 0,3150 0,0 Z" />
        <path
           inkscape:connector-curvature="0"
           id="path6080"
           style="fill:#ffffff;fill-opacity:1;fill-rule:nonzero;stroke:none"
           d="m 0,0 4200,0 0,3150 L 0,3150 0,0 Z" />
        <path
           inkscape:connector-curvature="0"
           id="path6082"
           style="fill:#ffffff;fill-opacity:1;fill-rule:nonzero;stroke:none"
           d="m 547.5,345 3255,0 0,2572.5 -3255,0 0,-2572.5 z" />
        <path
           inkscape:connector-curvature="0"
           id="path6084"
           style="fill:none;stroke:#262626;stroke-width:5.00250006;stroke-linecap:square;stroke-linejoin:round;stroke-miterlimit:10;stroke-dasharray:none;stroke-opacity:1"
           d="m 547.5,345 3255,0" />
        <path
           inkscape:connector-curvature="0"
           id="path6086"
           style="fill:none;stroke:#262626;stroke-width:5.00250006;stroke-linecap:square;stroke-linejoin:round;stroke-miterlimit:10;stroke-dasharray:none;stroke-opacity:1"
           d="m 547.5,345 0,32.551" />
        <path
           inkscape:connector-curvature="0"
           id="path6088"
           style="fill:none;stroke:#262626;stroke-width:5.00250006;stroke-linecap:square;stroke-linejoin:round;stroke-miterlimit:10;stroke-dasharray:none;stroke-opacity:1"
           d="m 1090,345 0,32.551" />
        <path
           inkscape:connector-curvature="0"
           id="path6090"
           style="fill:none;stroke:#262626;stroke-width:5.00250006;stroke-linecap:square;stroke-linejoin:round;stroke-miterlimit:10;stroke-dasharray:none;stroke-opacity:1"
           d="m 1632.5,345 0,32.551" />
        <path
           inkscape:connector-curvature="0"
           id="path6092"
           style="fill:none;stroke:#262626;stroke-width:5.00250006;stroke-linecap:square;stroke-linejoin:round;stroke-miterlimit:10;stroke-dasharray:none;stroke-opacity:1"
           d="m 2175,345 0,32.551" />
        <path
           inkscape:connector-curvature="0"
           id="path6094"
           style="fill:none;stroke:#262626;stroke-width:5.00250006;stroke-linecap:square;stroke-linejoin:round;stroke-miterlimit:10;stroke-dasharray:none;stroke-opacity:1"
           d="m 2717.5,345 0,32.551" />
        <path
           inkscape:connector-curvature="0"
           id="path6096"
           style="fill:none;stroke:#262626;stroke-width:5.00250006;stroke-linecap:square;stroke-linejoin:round;stroke-miterlimit:10;stroke-dasharray:none;stroke-opacity:1"
           d="m 3260,345 0,32.551" />
        <path
           inkscape:connector-curvature="0"
           id="path6098"
           style="fill:none;stroke:#262626;stroke-width:5.00250006;stroke-linecap:square;stroke-linejoin:round;stroke-miterlimit:10;stroke-dasharray:none;stroke-opacity:1"
           d="m 3802.5,345 0,32.551" />
        <g
           transform="scale(10,10)"
           id="g6100">
          <text
             id="text6102"
             style="font-variant:normal;font-weight:normal;font-size:9.99975014px;font-family:Helvetica;-inkscape-font-specification:Helvetica;writing-mode:lr-tb;fill:#262626;fill-opacity:1;fill-rule:nonzero;stroke:none"
             transform="matrix(1,0,0,-1,51.375,20.75)">
            <tspan
               id="tspan6104"
               sodipodi:role="line"
               y="0"
               x="0 54.250042 105.50006 111.05992 159.75011 165.30997 214.00015 219.56001 268.25018 273.81006 322.50024 328.06009">051015202530</tspan>
          </text>
        </g>
        <path
           inkscape:connector-curvature="0"
           id="path6106"
           style="fill:#262626;fill-opacity:1;fill-rule:nonzero;stroke:none"
           d="m 2126.84,49.8984 0,5.043 c 9.84,0 14.77,2.8125 14.77,8.4375 l 0,78.0431 c -3.13,0.551 -8.06,0.824 -14.77,0.824 l 0,5.035 27.3,0 c 0.47,0 0.78,-0.195 0.94,-0.586 l 50.51,-74.2966 0,61.4106 c 0,5.625 -4.89,8.437 -14.65,8.437 l 0,5.035 33.87,0 0,-5.035 c -9.77,0 -14.65,-2.812 -14.65,-8.437 l 0,-82.6176 c 0,-0.3164 -0.18,-0.6094 -0.53,-0.8789 -0.35,-0.2734 -0.64,-0.4141 -0.88,-0.4141 l -1.75,0 c -0.47,0 -0.79,0.1954 -0.94,0.586 l -59.89,88.0116 0,-75.1171 c 0,-5.625 4.88,-8.4375 14.65,-8.4375 l 0,-5.043 -33.98,0" />
        <path
           inkscape:connector-curvature="0"
           id="path6108"
           style="fill:none;stroke:#262626;stroke-width:5.00250006;stroke-linecap:square;stroke-linejoin:round;stroke-miterlimit:10;stroke-dasharray:none;stroke-opacity:1"
           d="m 547.5,345 0,2572.5" />
        <path
           inkscape:connector-curvature="0"
           id="path6110"
           style="fill:none;stroke:#262626;stroke-width:5.00250006;stroke-linecap:square;stroke-linejoin:round;stroke-miterlimit:10;stroke-dasharray:none;stroke-opacity:1"
           d="m 547.5,345 32.551,0" />
        <path
           inkscape:connector-curvature="0"
           id="path6112"
           style="fill:none;stroke:#262626;stroke-width:5.00250006;stroke-linecap:square;stroke-linejoin:round;stroke-miterlimit:10;stroke-dasharray:none;stroke-opacity:1"
           d="m 547.5,602.25 32.551,0" />
        <path
           inkscape:connector-curvature="0"
           id="path6114"
           style="fill:none;stroke:#262626;stroke-width:5.00250006;stroke-linecap:square;stroke-linejoin:round;stroke-miterlimit:10;stroke-dasharray:none;stroke-opacity:1"
           d="m 547.5,859.5 32.551,0" />
        <path
           inkscape:connector-curvature="0"
           id="path6116"
           style="fill:none;stroke:#262626;stroke-width:5.00250006;stroke-linecap:square;stroke-linejoin:round;stroke-miterlimit:10;stroke-dasharray:none;stroke-opacity:1"
           d="m 547.5,1116.75 32.551,0" />
        <path
           inkscape:connector-curvature="0"
           id="path6118"
           style="fill:none;stroke:#262626;stroke-width:5.00250006;stroke-linecap:square;stroke-linejoin:round;stroke-miterlimit:10;stroke-dasharray:none;stroke-opacity:1"
           d="m 547.5,1374 32.551,0" />
        <path
           inkscape:connector-curvature="0"
           id="path6120"
           style="fill:none;stroke:#262626;stroke-width:5.00250006;stroke-linecap:square;stroke-linejoin:round;stroke-miterlimit:10;stroke-dasharray:none;stroke-opacity:1"
           d="m 547.5,1631.25 32.551,0" />
        <path
           inkscape:connector-curvature="0"
           id="path6122"
           style="fill:none;stroke:#262626;stroke-width:5.00250006;stroke-linecap:square;stroke-linejoin:round;stroke-miterlimit:10;stroke-dasharray:none;stroke-opacity:1"
           d="m 547.5,1888.5 32.551,0" />
        <path
           inkscape:connector-curvature="0"
           id="path6124"
           style="fill:none;stroke:#262626;stroke-width:5.00250006;stroke-linecap:square;stroke-linejoin:round;stroke-miterlimit:10;stroke-dasharray:none;stroke-opacity:1"
           d="m 547.5,2145.75 32.551,0" />
        <path
           inkscape:connector-curvature="0"
           id="path6126"
           style="fill:none;stroke:#262626;stroke-width:5.00250006;stroke-linecap:square;stroke-linejoin:round;stroke-miterlimit:10;stroke-dasharray:none;stroke-opacity:1"
           d="m 547.5,2403 32.551,0" />
        <path
           inkscape:connector-curvature="0"
           id="path6128"
           style="fill:none;stroke:#262626;stroke-width:5.00250006;stroke-linecap:square;stroke-linejoin:round;stroke-miterlimit:10;stroke-dasharray:none;stroke-opacity:1"
           d="m 547.5,2660.25 32.551,0" />
        <path
           inkscape:connector-curvature="0"
           id="path6130"
           style="fill:none;stroke:#262626;stroke-width:5.00250006;stroke-linecap:square;stroke-linejoin:round;stroke-miterlimit:10;stroke-dasharray:none;stroke-opacity:1"
           d="m 547.5,2917.5 32.551,0" />
        <g
           transform="scale(10,10)"
           id="g6132">
          <text
             id="text6134"
             style="font-variant:normal;font-weight:normal;font-size:9.99975014px;font-family:Helvetica;-inkscape-font-specification:Helvetica;writing-mode:lr-tb;fill:#262626;fill-opacity:1;fill-rule:nonzero;stroke:none"
             transform="matrix(1,0,0,-1,44,31.125)">
            <tspan
               id="tspan6136"
               y="0"
               x="0">0</tspan>
            <tspan
               id="tspan6138"
               sodipodi:role="line"
               y="-25.725"
               x="-9 -3.4401391 -0.66020852">0.2</tspan>
            <tspan
               id="tspan6140"
               sodipodi:role="line"
               y="-51.450001"
               x="-9 -3.4401391 -0.66020852">0.4</tspan>
            <tspan
               id="tspan6142"
               sodipodi:role="line"
               y="-77.175003"
               x="-9 -3.4401391 -0.66020852">0.6</tspan>
            <tspan
               id="tspan6144"
               sodipodi:role="line"
               y="-102.9"
               x="-9 -3.4401391 -0.66020852">0.8</tspan>
            <tspan
               id="tspan6146"
               y="-128.625"
               x="0">1</tspan>
            <tspan
               id="tspan6148"
               sodipodi:role="line"
               y="-154.35001"
               x="-9 -3.4401391 -0.66020852">1.2</tspan>
            <tspan
               id="tspan6150"
               sodipodi:role="line"
               y="-180.075"
               x="-9 -3.4401391 -0.66020852">1.4</tspan>
            <tspan
               id="tspan6152"
               sodipodi:role="line"
               y="-205.8"
               x="-9 -3.4401391 -0.66020852">1.6</tspan>
            <tspan
               id="tspan6154"
               sodipodi:role="line"
               y="-231.52499"
               x="-9 -3.4401391 -0.66020852">1.8</tspan>
            <tspan
               id="tspan6156"
               y="-257.25"
               x="0">2</tspan>
          </text>
        </g>
        <path
           inkscape:connector-curvature="0"
           id="path6158"
           style="fill:#262626;fill-opacity:1;fill-rule:nonzero;stroke:none"
           d="m 269.602,1589.89 -5.043,0 c 0,9.85 -1.485,14.77 -4.454,14.77 l -78.277,0 c -3.051,0 -4.574,-4.92 -4.574,-14.77 l -5.035,0 0,78.64 32.695,3.98 0,-4.1 c -6.016,-0.7 -10.742,-1.6 -14.184,-2.7 -3.433,-1.09 -6.152,-2.67 -8.144,-4.75 -1.992,-2.07 -3.375,-4.85 -4.156,-8.37 -0.785,-3.52 -1.176,-8.32 -1.176,-14.41 l 0,-13.01 c 0,-1.72 0.078,-3.05 0.238,-3.99 0.156,-0.94 0.567,-1.72 1.231,-2.34 0.664,-0.63 1.699,-0.94 3.105,-0.94 l 36.676,0 0,10.08 c 0,4.92 -0.43,8.51 -1.285,10.78 -0.86,2.26 -2.442,3.83 -4.746,4.69 -2.305,0.85 -5.879,1.29 -10.727,1.29 l 0,4.1 38.32,0 0,-4.1 c -4.839,0 -8.394,-0.44 -10.66,-1.29 -2.269,-0.86 -3.832,-2.43 -4.687,-4.69 -0.86,-2.27 -1.289,-5.86 -1.289,-10.78 l 0,-10.08 36.675,0 c 2.969,0 4.454,6.09 4.454,18.28 l 5.043,0 0,-46.29" />
        <path
           inkscape:connector-curvature="0"
           id="path6160"
           style="fill:#000000;fill-opacity:1;fill-rule:nonzero;stroke:none"
           d="m 1407.63,2992.16 0,33.28 c 0,0.7 0.42,1.06 1.28,1.06 l 1.76,0 c 0.24,0 0.47,-0.12 0.71,-0.36 0.23,-0.23 0.35,-0.46 0.35,-0.7 0,-9.37 2.89,-16.62 8.67,-21.73 5.78,-5.12 13.35,-7.69 22.73,-7.69 3.28,0 6.33,0.96 9.14,2.88 2.81,1.91 4.98,4.41 6.5,7.5 1.53,3.08 2.29,6.26 2.29,9.55 0,2.89 -0.56,5.68 -1.7,8.38 -1.13,2.69 -2.79,5.04 -4.98,7.03 -2.18,1.99 -4.65,3.34 -7.38,4.04 l -18.52,4.46 c -6.17,1.64 -11.19,4.98 -15.06,10.02 -3.86,5.03 -5.79,10.68 -5.79,16.93 0,4.92 1.25,9.53 3.75,13.82 2.5,4.3 5.87,7.7 10.13,10.2 4.26,2.5 8.85,3.75 13.77,3.75 9.53,0 17.11,-3.2 22.73,-9.61 l 5.74,9.26 c 0.32,0.23 0.67,0.35 1.06,0.35 l 0.94,0 c 0.31,0 0.58,-0.1 0.82,-0.29 0.23,-0.2 0.35,-0.49 0.35,-0.88 l 0,-33.05 c 0,-0.78 -0.39,-1.17 -1.17,-1.17 l -1.64,0 c -0.86,0 -1.29,0.39 -1.29,1.17 0,2.43 -0.41,5.08 -1.23,7.97 -0.82,2.89 -1.95,5.65 -3.4,8.26 -1.44,2.62 -2.99,4.79 -4.63,6.5 -4.61,4.61 -10.7,6.92 -18.28,6.92 -3.28,0 -6.29,-0.82 -9.03,-2.46 -2.73,-1.64 -4.9,-3.87 -6.5,-6.68 -1.6,-2.81 -2.4,-5.78 -2.4,-8.91 0,-4.06 1.27,-7.75 3.81,-11.07 2.54,-3.32 5.84,-5.53 9.9,-6.62 l 18.51,-4.57 c 3.05,-0.7 5.93,-2.01 8.62,-3.93 2.7,-1.91 4.96,-4.16 6.79,-6.74 1.84,-2.57 3.27,-5.42 4.28,-8.55 1.02,-3.12 1.53,-6.37 1.53,-9.73 0,-5.08 -1.19,-9.9 -3.58,-14.47 -2.38,-4.57 -5.72,-8.26 -10.02,-11.07 -4.29,-2.82 -8.98,-4.23 -14.06,-4.23 -3.13,0 -6.35,0.36 -9.67,1.06 -3.32,0.7 -6.37,1.78 -9.14,3.23 -2.77,1.44 -5.29,3.3 -7.56,5.56 l -5.97,-9.37 c -0.31,-0.32 -0.67,-0.48 -1.06,-0.48 l -0.82,0 c -0.86,0 -1.28,0.4 -1.28,1.18" />
        <path
           inkscape:connector-curvature="0"
           id="path6162"
           style="fill:#000000;fill-opacity:1;fill-rule:nonzero;stroke:none"
           d="m 1491.96,3011.26 0,39.37 -11.83,0 0,3.64 c 6.25,0 10.84,2.89 13.77,8.67 2.93,5.78 4.39,12.07 4.39,18.87 l 4.1,0 0,-26.25 20.04,0 0,-4.93 -20.04,0 0,-39.13 c 0,-3.91 0.65,-7.35 1.94,-10.32 1.28,-2.97 3.65,-4.45 7.09,-4.45 3.28,0 5.64,1.56 7.08,4.69 1.45,3.12 2.17,6.48 2.17,10.08 l 0,8.43 4.1,0 0,-8.67 c 0,-2.97 -0.54,-5.9 -1.64,-8.79 -1.09,-2.89 -2.71,-5.27 -4.86,-7.15 -2.15,-1.87 -4.75,-2.81 -7.79,-2.81 -5.71,0 -10.22,1.72 -13.54,5.16 -3.32,3.43 -4.98,7.96 -4.98,13.59" />
        <path
           inkscape:connector-curvature="0"
           id="path6164"
           style="fill:#000000;fill-opacity:1;fill-rule:nonzero;stroke:none"
           d="m 1537.61,3008.09 c 0,5.71 2.23,10.34 6.69,13.89 4.45,3.56 9.79,6.06 15.99,7.5 6.21,1.45 12.13,2.17 17.76,2.17 l 0,5.86 c 0,2.73 -0.61,5.39 -1.82,7.97 -1.21,2.57 -2.94,4.68 -5.21,6.33 -2.27,1.64 -4.77,2.46 -7.5,2.46 -6.33,0 -11.13,-1.41 -14.41,-4.22 1.79,0 3.29,-0.69 4.5,-2.05 1.21,-1.37 1.82,-2.95 1.82,-4.75 0,-1.95 -0.68,-3.59 -2.05,-4.92 -1.36,-1.33 -2.95,-1.99 -4.75,-1.99 -1.95,0 -3.59,0.66 -4.92,1.99 -1.33,1.33 -1.99,2.97 -1.99,4.92 0,5 2.26,8.71 6.8,11.13 4.53,2.43 9.53,3.64 15,3.64 3.82,0 7.69,-0.82 11.59,-2.46 3.91,-1.65 7.12,-3.99 9.62,-7.04 2.5,-3.04 3.75,-6.63 3.75,-10.77 l 0,-32 c 0,-1.87 0.39,-3.59 1.17,-5.16 0.78,-1.56 1.99,-2.34 3.63,-2.34 1.56,0 2.74,0.78 3.52,2.34 0.78,1.57 1.17,3.29 1.17,5.16 l 0,9.02 4.22,0 0,-9.02 c 0,-2.19 -0.57,-4.24 -1.7,-6.15 -1.13,-1.91 -2.63,-3.44 -4.51,-4.57 -1.87,-1.13 -3.91,-1.7 -6.1,-1.7 -2.73,0 -5.11,1.08 -7.15,3.22 -2.03,2.15 -3.16,4.71 -3.39,7.68 -1.8,-3.59 -4.39,-6.45 -7.8,-8.56 -3.4,-2.11 -7.05,-3.16 -10.95,-3.16 -3.67,0 -7.25,0.54 -10.73,1.64 -3.47,1.1 -6.38,2.78 -8.73,5.04 -2.34,2.27 -3.52,5.23 -3.52,8.9 z m 11.5,0 c 0,-3.28 1.23,-6.07 3.68,-8.38 2.46,-2.3 5.37,-3.45 8.73,-3.45 3.05,0 5.82,0.78 8.32,2.35 2.5,1.55 4.5,3.64 5.98,6.27 1.48,2.61 2.23,5.4 2.23,8.37 l 0,14.77 c -4.3,0 -8.71,-0.7 -13.25,-2.11 -4.53,-1.41 -8.28,-3.61 -11.25,-6.62 -2.96,-3.01 -4.44,-6.74 -4.44,-11.2" />
        <path
           inkscape:connector-curvature="0"
           id="path6166"
           style="fill:#000000;fill-opacity:1;fill-rule:nonzero;stroke:none"
           d="m 1616.41,3011.26 0,39.37 -11.84,0 0,3.64 c 6.25,0 10.84,2.89 13.77,8.67 2.93,5.78 4.39,12.07 4.39,18.87 l 4.11,0 0,-26.25 20.04,0 0,-4.93 -20.04,0 0,-39.13 c 0,-3.91 0.64,-7.35 1.93,-10.32 1.29,-2.97 3.65,-4.45 7.09,-4.45 3.28,0 5.65,1.56 7.09,4.69 1.45,3.12 2.17,6.48 2.17,10.08 l 0,8.43 4.1,0 0,-8.67 c 0,-2.97 -0.54,-5.9 -1.64,-8.79 -1.1,-2.89 -2.72,-5.27 -4.86,-7.15 -2.15,-1.87 -4.75,-2.81 -7.8,-2.81 -5.7,0 -10.21,1.72 -13.53,5.16 -3.32,3.43 -4.98,7.96 -4.98,13.59" />
        <path
           inkscape:connector-curvature="0"
           id="path6168"
           style="fill:#000000;fill-opacity:1;fill-rule:nonzero;stroke:none"
           d="m 1691.83,2992.51 c -5.78,0 -11.09,1.52 -15.94,4.57 -4.84,3.05 -8.65,7.11 -11.43,12.19 -2.77,5.07 -4.15,10.46 -4.15,16.17 0,5.54 1.27,10.82 3.81,15.82 2.53,5 6.05,9.04 10.54,12.13 4.49,3.09 9.55,4.63 15.18,4.63 4.3,0 8.07,-0.72 11.3,-2.17 3.25,-1.44 5.9,-3.47 7.98,-6.1 2.07,-2.61 3.65,-5.68 4.74,-9.19 1.09,-3.52 1.64,-7.39 1.64,-11.6 0,-1.25 -0.51,-1.88 -1.52,-1.88 l -41.25,0 0,-1.52 c 0,-7.9 1.58,-14.67 4.75,-20.33 3.16,-5.67 8.38,-8.5 15.64,-8.5 2.89,0 5.56,0.65 8.02,1.93 2.47,1.29 4.61,3.11 6.45,5.45 1.84,2.35 3.11,4.81 3.81,7.39 0.08,0.39 0.24,0.7 0.47,0.93 0.24,0.23 0.55,0.35 0.94,0.35 l 1.17,0 c 1.01,0 1.52,-0.58 1.52,-1.76 -1.41,-5.38 -4.34,-9.82 -8.79,-13.29 -4.45,-3.48 -9.41,-5.22 -14.88,-5.22 z m -18.98,38.08 32.57,0 c 0,3.6 -0.51,7.23 -1.52,10.91 -1.02,3.67 -2.68,6.71 -4.98,9.13 -2.31,2.43 -5.33,3.64 -9.08,3.64 -5.39,0 -9.57,-2.52 -12.55,-7.56 -2.96,-5.04 -4.44,-10.41 -4.44,-16.12" />
        <path
           inkscape:connector-curvature="0"
           id="path6170"
           style="fill:#000000;fill-opacity:1;fill-rule:nonzero;stroke:none"
           d="m 1769.54,2994.15 0,5.04 c 9.85,0 14.77,1.49 14.77,4.45 l 0,78.28 c 0,3.05 -4.92,4.58 -14.77,4.58 l 0,5.03 78.64,0 3.98,-32.69 -4.1,0 c -0.7,6.01 -1.6,10.74 -2.69,14.18 -1.1,3.44 -2.68,6.15 -4.75,8.14 -2.07,2 -4.86,3.38 -8.37,4.16 -3.52,0.79 -8.33,1.18 -14.42,1.18 l -13.01,0 c -1.72,0 -3.05,-0.08 -3.98,-0.24 -0.94,-0.16 -1.72,-0.57 -2.34,-1.23 -0.63,-0.67 -0.94,-1.7 -0.94,-3.11 l 0,-36.67 10.07,0 c 4.92,0 8.52,0.43 10.78,1.28 2.27,0.86 3.83,2.44 4.69,4.75 0.86,2.3 1.29,5.88 1.29,10.72 l 4.11,0 0,-38.32 -4.11,0 c 0,4.84 -0.43,8.4 -1.29,10.66 -0.86,2.27 -2.42,3.84 -4.69,4.69 -2.26,0.86 -5.86,1.29 -10.78,1.29 l -10.07,0 0,-36.68 c 0,-2.96 6.09,-4.45 18.28,-4.45 l 0,-5.04 -46.3,0" />
        <path
           inkscape:connector-curvature="0"
           id="path6172"
           style="fill:#000000;fill-opacity:1;fill-rule:nonzero;stroke:none"
           d="m 1880.44,2992.51 c -5.78,0 -11.09,1.52 -15.94,4.57 -4.84,3.05 -8.65,7.11 -11.42,12.19 -2.78,5.07 -4.16,10.46 -4.16,16.17 0,5.54 1.27,10.82 3.81,15.82 2.54,5 6.05,9.04 10.54,12.13 4.49,3.09 9.55,4.63 15.18,4.63 4.3,0 8.07,-0.72 11.3,-2.17 3.25,-1.44 5.91,-3.47 7.98,-6.1 2.07,-2.61 3.65,-5.68 4.75,-9.19 1.09,-3.52 1.63,-7.39 1.63,-11.6 0,-1.25 -0.51,-1.88 -1.52,-1.88 l -41.25,0 0,-1.52 c 0,-7.9 1.58,-14.67 4.75,-20.33 3.16,-5.67 8.37,-8.5 15.64,-8.5 2.89,0 5.56,0.65 8.02,1.93 2.46,1.29 4.61,3.11 6.45,5.45 1.84,2.35 3.11,4.81 3.81,7.39 0.08,0.39 0.24,0.7 0.47,0.93 0.23,0.23 0.55,0.35 0.94,0.35 l 1.17,0 c 1.01,0 1.52,-0.58 1.52,-1.76 -1.41,-5.38 -4.34,-9.82 -8.79,-13.29 -4.45,-3.48 -9.41,-5.22 -14.88,-5.22 z m -18.98,38.08 32.58,0 c 0,3.6 -0.51,7.23 -1.53,10.91 -1.02,3.67 -2.68,6.71 -4.98,9.13 -2.31,2.43 -5.33,3.64 -9.08,3.64 -5.4,0 -9.57,-2.52 -12.54,-7.56 -2.97,-5.04 -4.45,-10.41 -4.45,-16.12" />
        <path
           inkscape:connector-curvature="0"
           id="path6174"
           style="fill:#000000;fill-opacity:1;fill-rule:nonzero;stroke:none"
           d="m 1942.66,2992.51 c -5.78,0 -11.09,1.52 -15.94,4.57 -4.84,3.05 -8.65,7.11 -11.42,12.19 -2.78,5.07 -4.16,10.46 -4.16,16.17 0,5.54 1.27,10.82 3.81,15.82 2.54,5 6.05,9.04 10.54,12.13 4.5,3.09 9.56,4.63 15.18,4.63 4.3,0 8.07,-0.72 11.31,-2.17 3.24,-1.44 5.9,-3.47 7.97,-6.1 2.07,-2.61 3.65,-5.68 4.75,-9.19 1.09,-3.52 1.64,-7.39 1.64,-11.6 0,-1.25 -0.51,-1.88 -1.53,-1.88 l -41.25,0 0,-1.52 c 0,-7.9 1.58,-14.67 4.74,-20.33 3.17,-5.67 8.38,-8.5 15.65,-8.5 2.89,0 5.57,0.65 8.03,1.93 2.46,1.29 4.61,3.11 6.45,5.45 1.83,2.35 3.1,4.81 3.8,7.39 0.08,0.39 0.23,0.7 0.47,0.93 0.23,0.23 0.55,0.35 0.94,0.35 l 1.17,0 c 1.02,0 1.53,-0.58 1.53,-1.76 -1.41,-5.38 -4.34,-9.82 -8.79,-13.29 -4.46,-3.48 -9.42,-5.22 -14.89,-5.22 z m -18.98,38.08 32.58,0 c 0,3.6 -0.51,7.23 -1.53,10.91 -1.01,3.67 -2.67,6.71 -4.98,9.13 -2.3,2.43 -5.33,3.64 -9.08,3.64 -5.39,0 -9.57,-2.52 -12.54,-7.56 -2.97,-5.04 -4.45,-10.41 -4.45,-16.12" />
        <path
           inkscape:connector-curvature="0"
           id="path6176"
           style="fill:#000000;fill-opacity:1;fill-rule:nonzero;stroke:none"
           d="m 2004.18,2992.51 c -5.62,0 -10.76,1.52 -15.41,4.57 -4.65,3.05 -8.26,7.05 -10.84,12.01 -2.58,4.96 -3.87,10.21 -3.87,15.77 0,5.78 1.41,11.14 4.23,16.1 2.8,4.97 6.63,8.89 11.48,11.79 4.84,2.89 10.16,4.33 15.93,4.33 3.44,0 6.72,-0.72 9.84,-2.17 3.13,-1.44 5.83,-3.45 8.1,-6.03 l 0,29.64 c 0,2.5 -0.37,4.32 -1.12,5.46 -0.74,1.13 -1.83,1.83 -3.28,2.11 -1.44,0.27 -3.65,0.41 -6.62,0.41 l 0,5.03 21.09,1.53 0,-86.02 c 0,-2.5 0.37,-4.31 1.12,-5.45 0.74,-1.13 1.81,-1.81 3.21,-2.05 1.41,-0.23 3.64,-0.35 6.69,-0.35 l 0,-5.04 -21.44,-1.64 0,9.02 c -2.5,-2.81 -5.45,-5.01 -8.86,-6.62 -3.39,-1.6 -6.81,-2.4 -10.25,-2.4 z m -14.53,14.06 c 1.64,-3.12 3.81,-5.62 6.51,-7.5 2.69,-1.87 5.64,-2.81 8.84,-2.81 3.91,0 7.52,1.15 10.84,3.45 3.32,2.31 5.8,5.26 7.45,8.86 l 0,34.1 c -1.18,2.11 -2.61,3.98 -4.29,5.62 -1.68,1.64 -3.57,2.91 -5.68,3.81 -2.11,0.9 -4.33,1.35 -6.68,1.35 -5,0 -9,-1.41 -12.01,-4.22 -3.01,-2.82 -5.11,-6.41 -6.33,-10.78 -1.21,-4.38 -1.82,-8.95 -1.82,-13.72 0,-3.75 0.2,-7.05 0.59,-9.89 0.39,-2.86 1.25,-5.61 2.58,-8.27" />
        <path
           inkscape:connector-curvature="0"
           id="path6178"
           style="fill:#000000;fill-opacity:1;fill-rule:nonzero;stroke:none"
           d="m 2061.92,2994.15 0,84.37 c 0,2.5 -0.37,4.32 -1.11,5.46 -0.74,1.13 -1.84,1.83 -3.29,2.11 -1.44,0.27 -3.69,0.41 -6.73,0.41 l 0,5.03 21.1,1.53 0,-44.65 c 1.63,1.8 3.51,3.36 5.62,4.68 2.1,1.33 4.35,2.33 6.74,3 2.38,0.66 4.82,0.99 7.32,0.99 4.3,0 8.26,-0.86 11.89,-2.58 3.63,-1.72 6.8,-4.08 9.49,-7.09 2.7,-3 4.81,-6.46 6.34,-10.37 1.52,-3.9 2.28,-7.97 2.28,-12.18 0,-5.71 -1.41,-11.04 -4.22,-16 -2.81,-4.96 -6.64,-8.93 -11.48,-11.9 -4.85,-2.97 -10.16,-4.45 -15.94,-4.45 -3.68,0 -7.19,0.94 -10.54,2.81 -3.37,1.88 -6.18,4.34 -8.44,7.39 l -4.81,-8.56 -4.22,0 z m 10.43,13.94 c 1.56,-3.43 3.83,-6.26 6.79,-8.49 2.97,-2.23 6.26,-3.34 9.85,-3.34 4.92,0 8.91,1.42 11.96,4.28 3.04,2.85 5.17,6.42 6.38,10.72 1.21,4.3 1.81,8.83 1.81,13.6 0,8.04 -1.05,14.17 -3.16,18.39 -0.94,1.8 -2.2,3.5 -3.8,5.1 -1.61,1.6 -3.39,2.85 -5.34,3.75 -1.95,0.9 -4.02,1.35 -6.2,1.35 -3.84,0 -7.37,-1.02 -10.62,-3.05 -3.24,-2.03 -5.79,-4.72 -7.67,-8.08 l 0,-34.23" />
        <path
           inkscape:connector-curvature="0"
           id="path6180"
           style="fill:#000000;fill-opacity:1;fill-rule:nonzero;stroke:none"
           d="m 2130.68,3008.09 c 0,5.71 2.22,10.34 6.67,13.89 4.46,3.56 9.79,6.06 16,7.5 6.21,1.45 12.13,2.17 17.75,2.17 l 0,5.86 c 0,2.73 -0.6,5.39 -1.81,7.97 -1.21,2.57 -2.95,4.68 -5.22,6.33 -2.26,1.64 -4.76,2.46 -7.5,2.46 -6.32,0 -11.13,-1.41 -14.41,-4.22 1.79,0 3.3,-0.69 4.51,-2.05 1.21,-1.37 1.82,-2.95 1.82,-4.75 0,-1.95 -0.69,-3.59 -2.06,-4.92 -1.36,-1.33 -2.94,-1.99 -4.74,-1.99 -1.95,0 -3.59,0.66 -4.92,1.99 -1.33,1.33 -1.99,2.97 -1.99,4.92 0,5 2.26,8.71 6.79,11.13 4.54,2.43 9.54,3.64 15,3.64 3.83,0 7.7,-0.82 11.61,-2.46 3.9,-1.65 7.11,-3.99 9.61,-7.04 2.5,-3.04 3.75,-6.63 3.75,-10.77 l 0,-32 c 0,-1.87 0.39,-3.59 1.16,-5.16 0.78,-1.56 2,-2.34 3.64,-2.34 1.56,0 2.73,0.78 3.51,2.34 0.79,1.57 1.18,3.29 1.18,5.16 l 0,9.02 4.22,0 0,-9.02 c 0,-2.19 -0.57,-4.24 -1.71,-6.15 -1.13,-1.91 -2.63,-3.44 -4.5,-4.57 -1.88,-1.13 -3.91,-1.7 -6.1,-1.7 -2.73,0 -5.12,1.08 -7.15,3.22 -2.03,2.15 -3.16,4.71 -3.4,7.68 -1.79,-3.59 -4.39,-6.45 -7.79,-8.56 -3.4,-2.11 -7.05,-3.16 -10.96,-3.16 -3.67,0 -7.24,0.54 -10.72,1.64 -3.48,1.1 -6.39,2.78 -8.73,5.04 -2.34,2.27 -3.51,5.23 -3.51,8.9 z m 11.48,0 c 0,-3.28 1.23,-6.07 3.69,-8.38 2.46,-2.3 5.37,-3.45 8.73,-3.45 3.05,0 5.83,0.78 8.33,2.35 2.5,1.55 4.48,3.64 5.97,6.27 1.48,2.61 2.22,5.4 2.22,8.37 l 0,14.77 c -4.29,0 -8.71,-0.7 -13.24,-2.11 -4.53,-1.41 -8.28,-3.61 -11.25,-6.62 -2.97,-3.01 -4.45,-6.74 -4.45,-11.2" />
        <path
           inkscape:connector-curvature="0"
           id="path6182"
           style="fill:#000000;fill-opacity:1;fill-rule:nonzero;stroke:none"
           d="m 2230.44,2992.51 c -5.78,0 -11.01,1.5 -15.7,4.51 -4.69,3.01 -8.38,7.01 -11.08,12.01 -2.7,5 -4.04,10.27 -4.04,15.83 0,5.62 1.34,11.01 4.04,16.16 2.7,5.16 6.39,9.28 11.08,12.37 4.69,3.09 9.92,4.63 15.7,4.63 5.55,0 10.6,-1.09 15.17,-3.29 4.57,-2.18 6.86,-5.73 6.86,-10.66 0,-1.87 -0.66,-3.5 -1.99,-4.86 -1.33,-1.37 -2.93,-2.05 -4.8,-2.05 -1.88,0 -3.48,0.68 -4.81,2.05 -1.33,1.36 -1.99,2.99 -1.99,4.86 0,1.64 0.53,3.09 1.58,4.34 1.06,1.25 2.36,2.03 3.93,2.34 -3.28,2.03 -7.89,3.05 -13.84,3.05 -4.53,0 -8.18,-1.5 -10.95,-4.51 -2.77,-3.01 -4.72,-6.74 -5.86,-11.2 -1.13,-4.45 -1.7,-8.86 -1.7,-13.23 0,-4.54 0.69,-8.95 2.05,-13.25 1.37,-4.29 3.58,-7.85 6.62,-10.66 3.05,-2.81 6.88,-4.22 11.49,-4.22 4.45,0 8.26,1.39 11.43,4.16 3.16,2.77 5.32,6.38 6.5,10.84 0,0.54 0.35,0.82 1.05,0.82 l 1.76,0 c 0.31,0 0.58,-0.14 0.82,-0.41 0.24,-0.27 0.35,-0.57 0.35,-0.88 l 0,-0.35 c -1.48,-5.63 -4.35,-10.1 -8.61,-13.42 -4.26,-3.32 -9.28,-4.98 -15.06,-4.98" />
        <path
           inkscape:connector-curvature="0"
           id="path6184"
           style="fill:#000000;fill-opacity:1;fill-rule:nonzero;stroke:none"
           d="m 2256.9,2994.15 0,5.04 c 3.28,0 5.96,0.26 8.03,0.77 2.07,0.5 3.1,1.73 3.1,3.68 l 0,74.88 c 0,2.5 -0.37,4.32 -1.12,5.46 -0.73,1.13 -1.83,1.83 -3.27,2.11 -1.45,0.27 -3.69,0.41 -6.74,0.41 l 0,5.03 21.09,1.53 0,-67.62 19.22,16.76 c 1.88,1.8 2.82,3.44 2.82,4.92 0,1.17 -0.39,2.05 -1.18,2.63 -0.78,0.59 -1.72,0.88 -2.81,0.88 l 0,4.93 26.72,0 0,-4.93 c -6.4,0 -12.85,-2.81 -19.33,-8.43 l -10.2,-8.91 18.16,-25.66 c 2.5,-3.6 4.61,-5.9 6.33,-6.92 1.72,-1.01 4.53,-1.52 8.44,-1.52 l 0,-5.04 -28.48,0 0,5.04 c 3.28,0 4.92,0.98 4.92,2.93 0,1.48 -0.86,3.32 -2.57,5.51 l -13.72,19.45 -8.67,-7.5 0,-15.94 c 0,-1.95 1.06,-3.18 3.16,-3.68 2.11,-0.51 4.77,-0.77 7.98,-0.77 l 0,-5.04 -31.88,0" />
        <path
           inkscape:connector-curvature="0"
           id="path6186"
           style="fill:#000000;fill-opacity:1;fill-rule:nonzero;stroke:none"
           d="m 2378.86,2994.15 0,5.04 c 9.77,0 14.65,2.81 14.65,8.44 l 0,74.29 c 0,3.05 -4.88,4.58 -14.65,4.58 l 0,5.03 26.96,0 c 1.09,0 1.83,-0.55 2.22,-1.64 l 31.05,-80.62 31.06,80.62 c 0.39,1.09 1.13,1.64 2.23,1.64 l 26.95,0 0,-5.03 c -9.76,0 -14.65,-1.53 -14.65,-4.58 l 0,-78.28 c 0,-2.96 4.89,-4.45 14.65,-4.45 l 0,-5.04 -41.49,0 0,5.04 c 9.85,0 14.77,1.49 14.77,4.45 l 0,82.97 -35.15,-90.82 c -0.39,-1.09 -1.17,-1.64 -2.35,-1.64 -1.17,0 -1.99,0.55 -2.46,1.64 l -34.57,89.77 0,-77.93 c 0,-5.63 4.88,-8.44 14.65,-8.44 l 0,-5.04 -33.87,0" />
        <path
           inkscape:connector-curvature="0"
           id="path6188"
           style="fill:#000000;fill-opacity:1;fill-rule:nonzero;stroke:none"
           d="m 2507.9,3008.09 c 0,5.71 2.23,10.34 6.68,13.89 4.45,3.56 9.78,6.06 15.99,7.5 6.22,1.45 12.13,2.17 17.76,2.17 l 0,5.86 c 0,2.73 -0.61,5.39 -1.82,7.97 -1.21,2.57 -2.95,4.68 -5.22,6.33 -2.26,1.64 -4.76,2.46 -7.5,2.46 -6.32,0 -11.13,-1.41 -14.41,-4.22 1.8,0 3.3,-0.69 4.51,-2.05 1.22,-1.37 1.82,-2.95 1.82,-4.75 0,-1.95 -0.68,-3.59 -2.05,-4.92 -1.37,-1.33 -2.95,-1.99 -4.75,-1.99 -1.95,0 -3.59,0.66 -4.91,1.99 -1.34,1.33 -2,2.97 -2,4.92 0,5 2.27,8.71 6.79,11.13 4.53,2.43 9.53,3.64 15,3.64 3.84,0 7.7,-0.82 11.61,-2.46 3.9,-1.65 7.1,-3.99 9.6,-7.04 2.5,-3.04 3.75,-6.63 3.75,-10.77 l 0,-32 c 0,-1.87 0.4,-3.59 1.18,-5.16 0.78,-1.56 1.99,-2.34 3.63,-2.34 1.56,0 2.73,0.78 3.52,2.34 0.78,1.57 1.17,3.29 1.17,5.16 l 0,9.02 4.21,0 0,-9.02 c 0,-2.19 -0.56,-4.24 -1.69,-6.15 -1.13,-1.91 -2.64,-3.44 -4.52,-4.57 -1.87,-1.13 -3.9,-1.7 -6.09,-1.7 -2.73,0 -5.11,1.08 -7.14,3.22 -2.04,2.15 -3.17,4.71 -3.4,7.68 -1.8,-3.59 -4.4,-6.45 -7.8,-8.56 -3.39,-2.11 -7.05,-3.16 -10.95,-3.16 -3.67,0 -7.25,0.54 -10.73,1.64 -3.47,1.1 -6.38,2.78 -8.73,5.04 -2.34,2.27 -3.51,5.23 -3.51,8.9 z m 11.48,0 c 0,-3.28 1.23,-6.07 3.69,-8.38 2.47,-2.3 5.38,-3.45 8.74,-3.45 3.04,0 5.82,0.78 8.32,2.35 2.5,1.55 4.49,3.64 5.97,6.27 1.49,2.61 2.23,5.4 2.23,8.37 l 0,14.77 c -4.3,0 -8.72,-0.7 -13.24,-2.11 -4.54,-1.41 -8.29,-3.61 -11.25,-6.62 -2.98,-3.01 -4.46,-6.74 -4.46,-11.2" />
        <path
           inkscape:connector-curvature="0"
           id="path6190"
           style="fill:#000000;fill-opacity:1;fill-rule:nonzero;stroke:none"
           d="m 2586.68,3011.26 0,39.37 -11.83,0 0,3.64 c 6.25,0 10.84,2.89 13.77,8.67 2.93,5.78 4.4,12.07 4.4,18.87 l 4.1,0 0,-26.25 20.04,0 0,-4.93 -20.04,0 0,-39.13 c 0,-3.91 0.64,-7.35 1.93,-10.32 1.29,-2.97 3.65,-4.45 7.09,-4.45 3.28,0 5.64,1.56 7.09,4.69 1.44,3.12 2.16,6.48 2.16,10.08 l 0,8.43 4.11,0 0,-8.67 c 0,-2.97 -0.55,-5.9 -1.64,-8.79 -1.09,-2.89 -2.72,-5.27 -4.86,-7.15 -2.16,-1.87 -4.75,-2.81 -7.8,-2.81 -5.7,0 -10.22,1.72 -13.54,5.16 -3.32,3.43 -4.98,7.96 -4.98,13.59" />
        <path
           inkscape:connector-curvature="0"
           id="path6192"
           style="fill:#000000;fill-opacity:1;fill-rule:nonzero;stroke:none"
           d="m 2630.23,2994.15 0,5.04 c 3.29,0 5.96,0.26 8.03,0.77 2.07,0.5 3.11,1.73 3.11,3.68 l 0,38.91 c 0,2.58 -0.37,4.43 -1.12,5.56 -0.74,1.14 -1.83,1.84 -3.28,2.12 -1.44,0.27 -3.69,0.4 -6.74,0.4 l 0,4.93 20.39,1.52 0,-13.83 c 1.57,4.06 3.76,7.38 6.56,9.96 2.82,2.58 6.26,3.87 10.32,3.87 2.81,0 5.33,-0.82 7.56,-2.46 2.22,-1.64 3.33,-3.83 3.33,-6.56 0,-1.72 -0.6,-3.22 -1.81,-4.51 -1.21,-1.3 -2.71,-1.94 -4.51,-1.94 -1.8,0 -3.32,0.62 -4.57,1.87 -1.25,1.25 -1.88,2.78 -1.88,4.58 0,2.5 0.9,4.3 2.7,5.39 l -0.82,0 c -3.83,0 -6.95,-1.39 -9.38,-4.16 -2.42,-2.77 -4.16,-6.23 -5.21,-10.37 -1.05,-4.14 -1.58,-8.09 -1.58,-11.84 l 0,-23.44 c 0,-2.96 4.65,-4.45 13.94,-4.45 l 0,-5.04 -35.04,0" />
        <path
           inkscape:connector-curvature="0"
           id="path6194"
           style="fill:#000000;fill-opacity:1;fill-rule:nonzero;stroke:none"
           d="m 2685.77,2994.15 0,5.04 c 3.28,0 5.96,0.26 8.03,0.77 2.07,0.5 3.11,1.73 3.11,3.68 l 0,38.91 c 0,3.67 -0.71,5.94 -2.12,6.79 -1.4,0.86 -4.18,1.29 -8.32,1.29 l 0,4.93 20.51,1.52 0,-53.44 c 0,-1.95 0.9,-3.18 2.7,-3.68 1.79,-0.51 4.21,-0.77 7.27,-0.77 l 0,-5.04 -31.18,0 z m 6.09,87.42 c 0,2.11 0.78,3.95 2.34,5.51 1.57,1.56 3.41,2.34 5.52,2.34 1.32,0 2.61,-0.33 3.86,-0.99 1.25,-0.66 2.23,-1.62 2.93,-2.87 0.71,-1.25 1.06,-2.58 1.06,-3.99 0,-2.03 -0.8,-3.82 -2.41,-5.39 -1.6,-1.56 -3.41,-2.34 -5.44,-2.34 -2.11,0 -3.95,0.78 -5.52,2.34 -1.56,1.57 -2.34,3.36 -2.34,5.39" />
        <path
           inkscape:connector-curvature="0"
           id="path6196"
           style="fill:#000000;fill-opacity:1;fill-rule:nonzero;stroke:none"
           d="m 2722.08,2994.15 0,5.04 c 3.6,0 6.99,0.7 10.19,2.11 3.21,1.4 5.94,3.51 8.21,6.33 l 12.89,16.4 -16.87,21.92 c -1.64,2.1 -3.44,3.41 -5.39,3.93 -1.96,0.5 -4.73,0.75 -8.32,0.75 l 0,4.93 29.64,0 0,-4.93 c -1.25,0 -2.42,-0.29 -3.51,-0.88 -1.1,-0.58 -1.65,-1.38 -1.65,-2.39 0,-0.4 0.12,-0.86 0.36,-1.41 l 11.48,-14.77 8.56,11.02 c 1.17,1.41 1.75,2.77 1.75,4.1 0,1.17 -0.39,2.19 -1.17,3.04 -0.78,0.86 -1.79,1.29 -3.04,1.29 l 0,4.93 26.25,0 0,-4.93 c -3.68,0 -7.14,-0.72 -10.37,-2.17 -3.25,-1.44 -5.96,-3.53 -8.15,-6.26 l -11.25,-14.42 18.17,-24.14 c 1.79,-2.03 3.66,-3.28 5.62,-3.75 1.95,-0.46 4.77,-0.7 8.44,-0.7 l 0,-5.04 -29.65,0 0,5.04 c 1.17,0 2.28,0.27 3.34,0.82 1.05,0.55 1.58,1.37 1.58,2.46 0,0.39 -0.15,0.78 -0.46,1.17 l -12.78,16.99 -10.2,-13 c -1.09,-1.25 -1.64,-2.66 -1.64,-4.22 0,-1.18 0.39,-2.17 1.18,-2.99 0.78,-0.82 1.71,-1.23 2.81,-1.23 l 0,-5.04 -26.02,0" />
        <path
           inkscape:connector-curvature="0"
           id="path6198"
           style="fill:#000000;fill-opacity:1;fill-rule:nonzero;stroke:none"
           d="m 2847.56,2994.15 c -0.94,0 -1.4,0.62 -1.4,1.87 0.07,0.24 0.17,0.65 0.29,1.23 0.11,0.59 0.31,1.06 0.58,1.41 0.28,0.36 0.61,0.53 1,0.53 5.78,0 9.8,0.31 12.07,0.94 1.25,0.39 2.15,1.68 2.69,3.87 l 19.57,78.27 c 0.16,0.94 0.24,1.57 0.24,1.88 0,1.01 -0.59,1.6 -1.76,1.76 -1.72,0.39 -5.12,0.59 -10.2,0.59 -0.93,0 -1.4,0.62 -1.4,1.87 0.08,0.23 0.17,0.64 0.29,1.23 0.12,0.59 0.31,1.06 0.59,1.4 0.27,0.36 0.61,0.53 0.99,0.53 l 75.24,0 c 0.94,0 1.41,-0.62 1.41,-1.87 l -3.41,-29.53 c 0,-0.32 -0.15,-0.61 -0.46,-0.88 -0.32,-0.27 -0.67,-0.41 -1.06,-0.41 l -1.17,0 c -1.02,0 -1.52,0.62 -1.52,1.87 0.62,4.3 0.93,7.81 0.93,10.55 0,4.69 -1.01,8.15 -3.04,10.37 -2.03,2.23 -4.62,3.59 -7.74,4.1 -3.13,0.51 -7.42,0.77 -12.88,0.77 l -15.25,0 c -2.57,0 -4.29,-0.22 -5.15,-0.65 -0.86,-0.43 -1.6,-1.85 -2.22,-4.28 l -9.15,-36.32 10.67,0 c 3.51,0 6.37,0.19 8.55,0.58 2.19,0.39 4,1.12 5.45,2.17 1.44,1.05 2.64,2.6 3.58,4.63 0.93,2.03 1.79,4.72 2.58,8.08 0.31,0.86 0.82,1.29 1.52,1.29 l 1.29,0 c 0.93,0 1.4,-0.62 1.4,-1.87 l -8.67,-35.27 c -0.47,-0.79 -0.97,-1.18 -1.52,-1.18 l -1.17,0 c -0.94,0 -1.41,0.63 -1.41,1.88 0.23,0.94 0.41,1.74 0.52,2.4 0.12,0.67 0.3,1.6 0.54,2.81 0.23,1.21 0.35,2.29 0.35,3.23 0,2.73 -1.21,4.46 -3.64,5.21 -2.42,0.74 -5.58,1.11 -9.48,1.11 l -11.73,0 -9.25,-36.91 c -0.24,-0.94 -0.36,-1.41 -0.36,-1.41 0,-1.09 0.35,-1.72 1.05,-1.87 2.5,-0.63 7.35,-0.94 14.54,-0.94 0.94,0 1.4,-0.62 1.4,-1.87 -0.31,-1.34 -0.56,-2.19 -0.76,-2.59 -0.19,-0.39 -0.76,-0.58 -1.7,-0.58 l -41.83,0" />
        <path
           inkscape:connector-curvature="0"
           id="path6200"
           style="fill:none;stroke:#0072bd;stroke-width:20.00250053;stroke-linecap:butt;stroke-linejoin:round;stroke-miterlimit:10;stroke-dasharray:none;stroke-opacity:1"
           d="m 547.5,2824.72 3249.58,0 1.08,-0.01 1.09,-0.03 1.08,-1.25 1.08,-10.35 1.09,-129.44" />
        <path
           inkscape:connector-curvature="0"
           id="path6202"
           style="fill:none;stroke:#d95319;stroke-width:20.00250053;stroke-linecap:butt;stroke-linejoin:round;stroke-miterlimit:10;stroke-dasharray:none;stroke-opacity:1"
           d="m 547.5,2657.88 3249.58,0 1.08,-0.02 1.09,-0.01 1.08,-1.03 1.08,-33.59 1.09,60.41" />
        <path
           inkscape:connector-curvature="0"
           id="path6204"
           style="fill:none;stroke:#edb120;stroke-width:20.00250053;stroke-linecap:butt;stroke-linejoin:round;stroke-miterlimit:10;stroke-dasharray:none;stroke-opacity:1"
           d="m 547.5,2572.85 3243.07,0 1.08,-0.01 1.08,0 1.09,-0.01 1.08,-0.09 1.09,-0.53 1.09,-0.8 1.08,-2.4 1.09,-26.4 1.08,-68.65 1.08,-70.96 1.09,-771.75" />
        <path
           inkscape:connector-curvature="0"
           id="path6206"
           style="fill:none;stroke:#7e2f8e;stroke-width:20.00250053;stroke-linecap:butt;stroke-linejoin:round;stroke-miterlimit:10;stroke-dasharray:none;stroke-opacity:1"
           d="m 547.5,2102.05 3244.15,0 1.08,-0.02 1.09,-0.01 1.08,-0.02 1.09,-0.73 1.09,-2 1.08,0.42 1.09,-22.45 1.08,-135.51 1.08,-53.23 1.09,-257.25" />
        <path
           inkscape:connector-curvature="0"
           id="path6208"
           style="fill:none;stroke:#77ac30;stroke-width:20.00250053;stroke-linecap:butt;stroke-linejoin:round;stroke-miterlimit:10;stroke-dasharray:none;stroke-opacity:1"
           d="m 547.5,2339.52 3234.38,0 1.09,-0.01 1.09,0 1.08,-0.01 1.09,-0.04 1.08,-0.05 1.08,-0.03 1.09,-0.3 1.09,-1.01 1.08,-1.05 1.08,-0.88 1.09,-8.07 1.08,-23.71 1.09,-20.42 1.09,-23.86 1.08,-184.19 1.09,-332.69 1.08,-117.96 1.08,-352.94 1.09,-693.437" />
        <path
           inkscape:connector-curvature="0"
           id="path6210"
           style="fill:none;stroke:#4dbeee;stroke-width:20.00250053;stroke-linecap:butt;stroke-linejoin:round;stroke-miterlimit:10;stroke-dasharray:none;stroke-opacity:1"
           d="m 547.5,1721.14 3234.38,0 1.09,0 1.09,0 1.08,-0.01 1.09,-0.04 1.08,-0.09 1.08,-0.02 1.09,-0.11 1.09,-1.16 1.08,-2.07 1.08,-0.21 1.09,-3.56 1.08,-28.58 1.09,-41.6 1.09,1.11 1.08,-95.99 1.09,-398.26 1.08,-156.417 1.08,-20.961 1.09,-394.309" />
        <path
           inkscape:connector-curvature="0"
           id="path6212"
           style="fill:#ffffff;fill-opacity:1;fill-rule:nonzero;stroke:none"
           d="m 832.5,585 727.5,0 0,727.5 -727.5,0 0,-727.5 z" />
        <g
           transform="scale(10,10)"
           id="g6214">
          <text
             id="text6216"
             style="font-variant:normal;font-weight:normal;font-size:9px;font-family:Helvetica;-inkscape-font-specification:Helvetica;writing-mode:lr-tb;fill:#000000;fill-opacity:1;fill-rule:nonzero;stroke:none"
             transform="matrix(1,0,0,-1,118.5,120.713)">
            <tspan
               id="tspan6218"
               sodipodi:role="line"
               y="0"
               x="0 6.4980001 9 14.256 16.757999 21.761999 24.264">R = 0.1</tspan>
          </text>
        </g>
        <path
           inkscape:connector-curvature="0"
           id="path6220"
           style="fill:none;stroke:#0072bd;stroke-width:20.00250053;stroke-linecap:butt;stroke-linejoin:round;stroke-miterlimit:10;stroke-dasharray:none;stroke-opacity:1"
           d="m 862.5,1240.88 300,0" />
        <g
           transform="scale(10,10)"
           id="g6222">
          <text
             id="text6224"
             style="font-variant:normal;font-weight:normal;font-size:9px;font-family:Helvetica;-inkscape-font-specification:Helvetica;writing-mode:lr-tb;fill:#000000;fill-opacity:1;fill-rule:nonzero;stroke:none"
             transform="matrix(1,0,0,-1,118.5,109.028)">
            <tspan
               id="tspan6226"
               sodipodi:role="line"
               y="0"
               x="0 6.4980001 9 14.256 16.757999 21.761999 24.264">R = 0.1</tspan>
          </text>
        </g>
        <path
           inkscape:connector-curvature="0"
           id="path6228"
           style="fill:none;stroke:#d95319;stroke-width:20.00250053;stroke-linecap:butt;stroke-linejoin:round;stroke-miterlimit:10;stroke-dasharray:none;stroke-opacity:1"
           d="m 862.5,1124.02 300,0" />
        <g
           transform="scale(10,10)"
           id="g6230">
          <text
             id="text6232"
             style="font-variant:normal;font-weight:normal;font-size:9px;font-family:Helvetica;-inkscape-font-specification:Helvetica;writing-mode:lr-tb;fill:#000000;fill-opacity:1;fill-rule:nonzero;stroke:none"
             transform="matrix(1,0,0,-1,118.5,97.3426)">
            <tspan
               id="tspan6234"
               sodipodi:role="line"
               y="0"
               x="0 6.4980001 9 14.256 16.757999">R = 1</tspan>
          </text>
        </g>
        <path
           inkscape:connector-curvature="0"
           id="path6236"
           style="fill:none;stroke:#edb120;stroke-width:20.00250053;stroke-linecap:butt;stroke-linejoin:round;stroke-miterlimit:10;stroke-dasharray:none;stroke-opacity:1"
           d="m 862.5,1007.18 300,0" />
        <g
           transform="scale(10,10)"
           id="g6238">
          <text
             id="text6240"
             style="font-variant:normal;font-weight:normal;font-size:9px;font-family:Helvetica;-inkscape-font-specification:Helvetica;writing-mode:lr-tb;fill:#000000;fill-opacity:1;fill-rule:nonzero;stroke:none"
             transform="matrix(1,0,0,-1,118.5,85.6574)">
            <tspan
               id="tspan6242"
               sodipodi:role="line"
               y="0"
               x="0 6.4980001 9 14.256 16.757999">R = 1</tspan>
          </text>
        </g>
        <path
           inkscape:connector-curvature="0"
           id="path6244"
           style="fill:none;stroke:#7e2f8e;stroke-width:20.00250053;stroke-linecap:butt;stroke-linejoin:round;stroke-miterlimit:10;stroke-dasharray:none;stroke-opacity:1"
           d="m 862.5,890.324 300,0" />
        <g
           transform="scale(10,10)"
           id="g6246">
          <text
             id="text6248"
             style="font-variant:normal;font-weight:normal;font-size:9px;font-family:Helvetica;-inkscape-font-specification:Helvetica;writing-mode:lr-tb;fill:#000000;fill-opacity:1;fill-rule:nonzero;stroke:none"
             transform="matrix(1,0,0,-1,118.5,73.9723)">
            <tspan
               id="tspan6250"
               sodipodi:role="line"
               y="0"
               x="0 6.4980001 9 14.256 16.757999 21.761999">R = 10</tspan>
          </text>
        </g>
        <path
           inkscape:connector-curvature="0"
           id="path6252"
           style="fill:none;stroke:#77ac30;stroke-width:20.00250053;stroke-linecap:butt;stroke-linejoin:round;stroke-miterlimit:10;stroke-dasharray:none;stroke-opacity:1"
           d="m 862.5,773.477 300,0" />
        <g
           transform="scale(10,10)"
           id="g6254">
          <text
             id="text6256"
             style="font-variant:normal;font-weight:normal;font-size:9px;font-family:Helvetica;-inkscape-font-specification:Helvetica;writing-mode:lr-tb;fill:#000000;fill-opacity:1;fill-rule:nonzero;stroke:none"
             transform="matrix(1,0,0,-1,118.5,62.2871)">
            <tspan
               id="tspan6258"
               sodipodi:role="line"
               y="0"
               x="0 6.4980001 9 14.256 16.757999 21.761999">R = 10</tspan>
          </text>
        </g>
        <path
           inkscape:connector-curvature="0"
           id="path6260"
           style="fill:none;stroke:#4dbeee;stroke-width:20.00250053;stroke-linecap:butt;stroke-linejoin:round;stroke-miterlimit:10;stroke-dasharray:none;stroke-opacity:1"
           d="m 862.5,656.617 300,0" />
        <path
           inkscape:connector-curvature="0"
           id="path6262"
           style="fill:none;stroke:#262626;stroke-width:5.00250006;stroke-linecap:butt;stroke-linejoin:miter;stroke-miterlimit:10;stroke-dasharray:none;stroke-opacity:1"
           d="m 832.5,585 727.5,0 0,727.5 -727.5,0 0,-727.5 z" />
      </g>
    </g>
    <g
       id="g6785"
       transform="translate(-31.314729,-20.203051)">
      <g
         clip-path="url(#clipPath5810-3)"
         id="g5508"
         inkscape:label="ink_ext_XXXXXX"
         transform="matrix(1.3463735,0,0,-1.3463735,294.61487,564.69286)">
        <g
           id="g5510"
           transform="scale(0.1,0.1)">
          <g
             id="g5512">
            <g
               id="g5514"
               clip-path="url(#clipPath5516-7)">
              <path
                 d="m 0,0 4125,0 0,2925 L 0,2925 0,0 Z"
                 style="fill:#ffffff;fill-opacity:1;fill-rule:nonzero;stroke:none"
                 id="path5520"
                 inkscape:connector-curvature="0" />
            </g>
          </g>
          <path
             d="m 0,0 4125,0 0,2925 L 0,2925 0,0 Z"
             style="fill:#ffffff;fill-opacity:1;fill-rule:nonzero;stroke:none"
             id="path5522"
             inkscape:connector-curvature="0" />
          <path
             d="m 540.008,345 3194.99,0 0,2362.5 -3194.99,0 0,-2362.5 z"
             style="fill:#ffffff;fill-opacity:1;fill-rule:nonzero;stroke:none"
             id="path5524"
             inkscape:connector-curvature="0" />
          <path
             d="M 540.008,345 3735,345"
             style="fill:none;stroke:#262626;stroke-width:5.00250006;stroke-linecap:square;stroke-linejoin:round;stroke-miterlimit:10;stroke-dasharray:none;stroke-opacity:1"
             id="path5526"
             inkscape:connector-curvature="0" />
          <path
             d="m 686.219,345 0,31.949"
             style="fill:none;stroke:#262626;stroke-width:5.00250006;stroke-linecap:square;stroke-linejoin:round;stroke-miterlimit:10;stroke-dasharray:none;stroke-opacity:1"
             id="path5528"
             inkscape:connector-curvature="0" />
          <path
             d="m 1121.73,345 0,31.949"
             style="fill:none;stroke:#262626;stroke-width:5.00250006;stroke-linecap:square;stroke-linejoin:round;stroke-miterlimit:10;stroke-dasharray:none;stroke-opacity:1"
             id="path5530"
             inkscape:connector-curvature="0" />
          <path
             d="m 1557.28,345 0,31.949"
             style="fill:none;stroke:#262626;stroke-width:5.00250006;stroke-linecap:square;stroke-linejoin:round;stroke-miterlimit:10;stroke-dasharray:none;stroke-opacity:1"
             id="path5532"
             inkscape:connector-curvature="0" />
          <path
             d="m 1992.83,345 0,31.949"
             style="fill:none;stroke:#262626;stroke-width:5.00250006;stroke-linecap:square;stroke-linejoin:round;stroke-miterlimit:10;stroke-dasharray:none;stroke-opacity:1"
             id="path5534"
             inkscape:connector-curvature="0" />
          <path
             d="m 2428.39,345 0,31.949"
             style="fill:none;stroke:#262626;stroke-width:5.00250006;stroke-linecap:square;stroke-linejoin:round;stroke-miterlimit:10;stroke-dasharray:none;stroke-opacity:1"
             id="path5536"
             inkscape:connector-curvature="0" />
          <path
             d="m 2863.9,345 0,31.949"
             style="fill:none;stroke:#262626;stroke-width:5.00250006;stroke-linecap:square;stroke-linejoin:round;stroke-miterlimit:10;stroke-dasharray:none;stroke-opacity:1"
             id="path5538"
             inkscape:connector-curvature="0" />
          <path
             d="m 3299.45,345 0,31.949"
             style="fill:none;stroke:#262626;stroke-width:5.00250006;stroke-linecap:square;stroke-linejoin:round;stroke-miterlimit:10;stroke-dasharray:none;stroke-opacity:1"
             id="path5540"
             inkscape:connector-curvature="0" />
          <path
             d="m 3735,345 0,31.949"
             style="fill:none;stroke:#262626;stroke-width:5.00250006;stroke-linecap:square;stroke-linejoin:round;stroke-miterlimit:10;stroke-dasharray:none;stroke-opacity:1"
             id="path5542"
             inkscape:connector-curvature="0" />
          <g
             id="g5544"
             transform="scale(10,10)">
            <text
               transform="matrix(1,0,0,-1,54.3715,20.75)"
               style="font-variant:normal;font-weight:normal;font-size:9.99975014px;font-family:Helvetica;-inkscape-font-specification:Helvetica;writing-mode:lr-tb;fill:#262626;fill-opacity:1;fill-rule:nonzero;stroke:none"
               id="text5546">
              <tspan
                 x="0 5.5598612 11.119722 13.899652 19.459513 43.551212 49.111073 54.670933 57.450863 63.010723 90.481636 96.041496 101.60136 104.38129 130.66173 136.22159 141.78145 144.56139 150.12125 174.21684 179.7767 185.33656 188.1165 193.67636 217.76796 223.32782 228.88768 231.6676 237.22746 261.32336 266.88324 272.44308 275.22302 280.78287 312.75348 318.31335"
                 y="0"
                 sodipodi:role="line"
                 id="tspan5548">29.8629.8829.929.9229.9429.9629.9830</tspan>
            </text>
          </g>
          <path
             d="m 2089.34,49.8984 0,5.043 c 9.84,0 14.77,2.8125 14.77,8.4375 l 0,78.0431 c -3.13,0.551 -8.05,0.824 -14.77,0.824 l 0,5.035 27.31,0 c 0.46,0 0.78,-0.195 0.94,-0.586 l 50.5,-74.2966 0,61.4106 c 0,5.625 -4.88,8.437 -14.65,8.437 l 0,5.035 33.87,0 0,-5.035 c -9.76,0 -14.65,-2.812 -14.65,-8.437 l 0,-82.6176 c 0,-0.3164 -0.17,-0.6094 -0.53,-0.8789 -0.35,-0.2734 -0.64,-0.4141 -0.88,-0.4141 l -1.75,0 c -0.47,0 -0.79,0.1954 -0.94,0.586 l -59.88,88.0116 0,-75.1171 c 0,-5.625 4.87,-8.4375 14.64,-8.4375 l 0,-5.043 -33.98,0"
             style="fill:#262626;fill-opacity:1;fill-rule:nonzero;stroke:none"
             id="path5550"
             inkscape:connector-curvature="0" />
          <path
             d="m 540.008,345 0,2362.5"
             style="fill:none;stroke:#262626;stroke-width:5.00250006;stroke-linecap:square;stroke-linejoin:round;stroke-miterlimit:10;stroke-dasharray:none;stroke-opacity:1"
             id="path5552"
             inkscape:connector-curvature="0" />
          <path
             d="m 540.008,345 31.941,0"
             style="fill:none;stroke:#262626;stroke-width:5.00250006;stroke-linecap:square;stroke-linejoin:round;stroke-miterlimit:10;stroke-dasharray:none;stroke-opacity:1"
             id="path5554"
             inkscape:connector-curvature="0" />
          <path
             d="m 540.008,581.25 31.941,0"
             style="fill:none;stroke:#262626;stroke-width:5.00250006;stroke-linecap:square;stroke-linejoin:round;stroke-miterlimit:10;stroke-dasharray:none;stroke-opacity:1"
             id="path5556"
             inkscape:connector-curvature="0" />
          <path
             d="m 540.008,817.5 31.941,0"
             style="fill:none;stroke:#262626;stroke-width:5.00250006;stroke-linecap:square;stroke-linejoin:round;stroke-miterlimit:10;stroke-dasharray:none;stroke-opacity:1"
             id="path5558"
             inkscape:connector-curvature="0" />
          <path
             d="m 540.008,1053.75 31.941,0"
             style="fill:none;stroke:#262626;stroke-width:5.00250006;stroke-linecap:square;stroke-linejoin:round;stroke-miterlimit:10;stroke-dasharray:none;stroke-opacity:1"
             id="path5560"
             inkscape:connector-curvature="0" />
          <path
             d="m 540.008,1290 31.941,0"
             style="fill:none;stroke:#262626;stroke-width:5.00250006;stroke-linecap:square;stroke-linejoin:round;stroke-miterlimit:10;stroke-dasharray:none;stroke-opacity:1"
             id="path5562"
             inkscape:connector-curvature="0" />
          <path
             d="m 540.008,1526.25 31.941,0"
             style="fill:none;stroke:#262626;stroke-width:5.00250006;stroke-linecap:square;stroke-linejoin:round;stroke-miterlimit:10;stroke-dasharray:none;stroke-opacity:1"
             id="path5564"
             inkscape:connector-curvature="0" />
          <path
             d="m 540.008,1762.5 31.941,0"
             style="fill:none;stroke:#262626;stroke-width:5.00250006;stroke-linecap:square;stroke-linejoin:round;stroke-miterlimit:10;stroke-dasharray:none;stroke-opacity:1"
             id="path5566"
             inkscape:connector-curvature="0" />
          <path
             d="m 540.008,1998.75 31.941,0"
             style="fill:none;stroke:#262626;stroke-width:5.00250006;stroke-linecap:square;stroke-linejoin:round;stroke-miterlimit:10;stroke-dasharray:none;stroke-opacity:1"
             id="path5568"
             inkscape:connector-curvature="0" />
          <path
             d="m 540.008,2235 31.941,0"
             style="fill:none;stroke:#262626;stroke-width:5.00250006;stroke-linecap:square;stroke-linejoin:round;stroke-miterlimit:10;stroke-dasharray:none;stroke-opacity:1"
             id="path5570"
             inkscape:connector-curvature="0" />
          <path
             d="m 540.008,2471.25 31.941,0"
             style="fill:none;stroke:#262626;stroke-width:5.00250006;stroke-linecap:square;stroke-linejoin:round;stroke-miterlimit:10;stroke-dasharray:none;stroke-opacity:1"
             id="path5572"
             inkscape:connector-curvature="0" />
          <path
             d="m 540.008,2707.5 31.941,0"
             style="fill:none;stroke:#262626;stroke-width:5.00250006;stroke-linecap:square;stroke-linejoin:round;stroke-miterlimit:10;stroke-dasharray:none;stroke-opacity:1"
             id="path5574"
             inkscape:connector-curvature="0" />
          <g
             id="g5576"
             transform="scale(10,10)">
            <text
               transform="matrix(1,0,0,-1,43.2508,31.125)"
               style="font-variant:normal;font-weight:normal;font-size:9.99975014px;font-family:Helvetica;-inkscape-font-specification:Helvetica;writing-mode:lr-tb;fill:#262626;fill-opacity:1;fill-rule:nonzero;stroke:none"
               id="text5578">
              <tspan
                 x="0"
                 y="0"
                 id="tspan5580">0</tspan>
              <tspan
                 x="-9 -3.4401391 -0.66020852"
                 y="-23.625"
                 sodipodi:role="line"
                 id="tspan5582">0.2</tspan>
              <tspan
                 x="-9 -3.4401391 -0.66020852"
                 y="-47.25"
                 sodipodi:role="line"
                 id="tspan5584">0.4</tspan>
              <tspan
                 x="-9 -3.4401391 -0.66020852"
                 y="-70.875"
                 sodipodi:role="line"
                 id="tspan5586">0.6</tspan>
              <tspan
                 x="-9 -3.4401391 -0.66020852"
                 y="-94.5"
                 sodipodi:role="line"
                 id="tspan5588">0.8</tspan>
              <tspan
                 x="0"
                 y="-118.125"
                 id="tspan5590">1</tspan>
              <tspan
                 x="-9 -3.4401391 -0.66020852"
                 y="-141.75"
                 sodipodi:role="line"
                 id="tspan5592">1.2</tspan>
              <tspan
                 x="-9 -3.4401391 -0.66020852"
                 y="-165.375"
                 sodipodi:role="line"
                 id="tspan5594">1.4</tspan>
              <tspan
                 x="-9 -3.4401391 -0.66020852"
                 y="-189"
                 sodipodi:role="line"
                 id="tspan5596">1.6</tspan>
              <tspan
                 x="-9 -3.4401391 -0.66020852"
                 y="-212.625"
                 sodipodi:role="line"
                 id="tspan5598">1.8</tspan>
              <tspan
                 x="0"
                 y="-236.25"
                 id="tspan5600">2</tspan>
            </text>
          </g>
          <path
             d="m 262.113,1484.89 -5.043,0 c 0,9.84 -1.484,14.77 -4.453,14.77 l -78.277,0 c -3.051,0 -4.574,-4.93 -4.574,-14.77 l -5.036,0 0,78.64 32.696,3.98 0,-4.1 c -6.016,-0.7 -10.742,-1.6 -14.184,-2.7 -3.433,-1.09 -6.148,-2.67 -8.144,-4.75 -1.993,-2.07 -3.375,-4.85 -4.157,-8.37 -0.785,-3.52 -1.175,-8.32 -1.175,-14.42 l 0,-13 c 0,-1.72 0.078,-3.05 0.238,-3.99 0.156,-0.94 0.566,-1.72 1.23,-2.34 0.664,-0.63 1.7,-0.94 3.106,-0.94 l 36.676,0 0,10.08 c 0,4.92 -0.43,8.51 -1.286,10.78 -0.859,2.26 -2.441,3.83 -4.746,4.69 -2.304,0.85 -5.879,1.28 -10.726,1.28 l 0,4.11 38.32,0 0,-4.11 c -4.84,0 -8.394,-0.43 -10.66,-1.28 -2.27,-0.86 -3.832,-2.43 -4.688,-4.69 -0.859,-2.27 -1.289,-5.86 -1.289,-10.78 l 0,-10.08 36.676,0 c 2.969,0 4.453,6.09 4.453,18.28 l 5.043,0 0,-46.29"
             style="fill:#262626;fill-opacity:1;fill-rule:nonzero;stroke:none"
             id="path5602"
             inkscape:connector-curvature="0" />
          <path
             d="m 1370.13,2782.16 0,33.28 c 0,0.7 0.42,1.06 1.29,1.06 l 1.75,0 c 0.24,0 0.47,-0.12 0.71,-0.36 0.23,-0.23 0.35,-0.46 0.35,-0.7 0,-9.37 2.89,-16.62 8.67,-21.73 5.78,-5.12 13.36,-7.69 22.73,-7.69 3.28,0 6.33,0.96 9.14,2.88 2.81,1.91 4.98,4.41 6.51,7.5 1.52,3.08 2.28,6.26 2.28,9.55 0,2.89 -0.56,5.68 -1.7,8.38 -1.13,2.69 -2.79,5.04 -4.98,7.03 -2.18,1.99 -4.64,3.34 -7.38,4.04 l -18.52,4.46 c -6.17,1.64 -11.19,4.98 -15.05,10.02 -3.87,5.03 -5.8,10.68 -5.8,16.93 0,4.92 1.25,9.53 3.75,13.82 2.5,4.3 5.87,7.7 10.13,10.2 4.26,2.5 8.85,3.75 13.77,3.75 9.53,0 17.11,-3.2 22.73,-9.61 l 5.75,9.26 c 0.31,0.23 0.67,0.35 1.05,0.35 l 0.94,0 c 0.31,0 0.59,-0.1 0.82,-0.29 0.23,-0.2 0.35,-0.49 0.35,-0.88 l 0,-33.05 c 0,-0.78 -0.39,-1.17 -1.17,-1.17 l -1.64,0 c -0.86,0 -1.29,0.39 -1.29,1.17 0,2.43 -0.41,5.08 -1.23,7.97 -0.82,2.89 -1.95,5.65 -3.4,8.26 -1.44,2.62 -2.99,4.79 -4.63,6.5 -4.61,4.61 -10.7,6.92 -18.28,6.92 -3.28,0 -6.29,-0.82 -9.02,-2.46 -2.74,-1.64 -4.9,-3.87 -6.51,-6.68 -1.6,-2.81 -2.39,-5.78 -2.39,-8.91 0,-4.06 1.26,-7.75 3.8,-11.07 2.54,-3.32 5.84,-5.53 9.9,-6.62 l 18.51,-4.57 c 3.06,-0.7 5.93,-2.01 8.62,-3.93 2.7,-1.91 4.96,-4.16 6.8,-6.74 1.83,-2.57 3.26,-5.42 4.27,-8.55 1.02,-3.12 1.53,-6.37 1.53,-9.73 0,-5.08 -1.19,-9.9 -3.58,-14.47 -2.38,-4.57 -5.72,-8.26 -10.01,-11.07 -4.3,-2.82 -8.99,-4.23 -14.07,-4.23 -3.12,0 -6.34,0.36 -9.67,1.06 -3.32,0.7 -6.36,1.78 -9.14,3.23 -2.77,1.44 -5.29,3.3 -7.56,5.56 l -5.97,-9.37 c -0.31,-0.32 -0.66,-0.48 -1.06,-0.48 l -0.81,0 c -0.87,0 -1.29,0.4 -1.29,1.18"
             style="fill:#000000;fill-opacity:1;fill-rule:nonzero;stroke:none"
             id="path5604"
             inkscape:connector-curvature="0" />
          <path
             d="m 1454.46,2801.26 0,39.37 -11.83,0 0,3.64 c 6.25,0 10.84,2.89 13.77,8.67 2.93,5.78 4.39,12.07 4.39,18.87 l 4.11,0 0,-26.25 20.04,0 0,-4.93 -20.04,0 0,-39.13 c 0,-3.91 0.64,-7.35 1.93,-10.32 1.29,-2.97 3.65,-4.45 7.09,-4.45 3.28,0 5.64,1.56 7.09,4.69 1.44,3.12 2.17,6.48 2.17,10.08 l 0,8.43 4.1,0 0,-8.67 c 0,-2.97 -0.55,-5.9 -1.65,-8.79 -1.09,-2.89 -2.7,-5.27 -4.86,-7.15 -2.14,-1.87 -4.74,-2.81 -7.79,-2.81 -5.7,0 -10.21,1.72 -13.53,5.16 -3.32,3.43 -4.99,7.96 -4.99,13.59"
             style="fill:#000000;fill-opacity:1;fill-rule:nonzero;stroke:none"
             id="path5606"
             inkscape:connector-curvature="0" />
          <path
             d="m 1500.12,2798.09 c 0,5.71 2.22,10.34 6.68,13.89 4.45,3.56 9.79,6.06 16,7.5 6.21,1.45 12.13,2.17 17.75,2.17 l 0,5.86 c 0,2.73 -0.6,5.39 -1.82,7.97 -1.21,2.57 -2.94,4.68 -5.21,6.33 -2.27,1.64 -4.77,2.46 -7.5,2.46 -6.33,0 -11.13,-1.41 -14.41,-4.22 1.79,0 3.29,-0.69 4.5,-2.05 1.21,-1.37 1.82,-2.95 1.82,-4.75 0,-1.95 -0.68,-3.59 -2.05,-4.92 -1.36,-1.33 -2.95,-1.99 -4.75,-1.99 -1.95,0 -3.59,0.66 -4.92,1.99 -1.33,1.33 -1.99,2.97 -1.99,4.92 0,5 2.27,8.71 6.8,11.13 4.53,2.43 9.53,3.64 15,3.64 3.83,0 7.69,-0.82 11.6,-2.46 3.91,-1.65 7.11,-3.99 9.61,-7.04 2.5,-3.04 3.75,-6.63 3.75,-10.77 l 0,-32 c 0,-1.87 0.39,-3.59 1.17,-5.16 0.78,-1.56 1.99,-2.34 3.63,-2.34 1.57,0 2.74,0.78 3.52,2.34 0.78,1.57 1.17,3.29 1.17,5.16 l 0,9.02 4.22,0 0,-9.02 c 0,-2.19 -0.56,-4.24 -1.7,-6.15 -1.13,-1.91 -2.63,-3.44 -4.51,-4.57 -1.87,-1.13 -3.91,-1.7 -6.1,-1.7 -2.73,0 -5.11,1.08 -7.14,3.22 -2.03,2.15 -3.17,4.71 -3.4,7.68 -1.8,-3.59 -4.39,-6.45 -7.79,-8.56 -3.41,-2.11 -7.06,-3.16 -10.96,-3.16 -3.67,0 -7.25,0.54 -10.73,1.64 -3.47,1.1 -6.38,2.78 -8.73,5.04 -2.34,2.27 -3.51,5.23 -3.51,8.9 z m 11.49,0 c 0,-3.28 1.23,-6.07 3.69,-8.38 2.46,-2.3 5.37,-3.45 8.73,-3.45 3.04,0 5.81,0.78 8.31,2.35 2.5,1.55 4.5,3.64 5.98,6.27 1.48,2.61 2.23,5.4 2.23,8.37 l 0,14.77 c -4.3,0 -8.71,-0.7 -13.25,-2.11 -4.53,-1.41 -8.28,-3.61 -11.25,-6.62 -2.96,-3.01 -4.44,-6.74 -4.44,-11.2"
             style="fill:#000000;fill-opacity:1;fill-rule:nonzero;stroke:none"
             id="path5608"
             inkscape:connector-curvature="0" />
          <path
             d="m 1578.91,2801.26 0,39.37 -11.83,0 0,3.64 c 6.25,0 10.84,2.89 13.77,8.67 2.92,5.78 4.38,12.07 4.38,18.87 l 4.11,0 0,-26.25 20.04,0 0,-4.93 -20.04,0 0,-39.13 c 0,-3.91 0.64,-7.35 1.93,-10.32 1.29,-2.97 3.66,-4.45 7.09,-4.45 3.28,0 5.65,1.56 7.09,4.69 1.45,3.12 2.17,6.48 2.17,10.08 l 0,8.43 4.1,0 0,-8.67 c 0,-2.97 -0.54,-5.9 -1.64,-8.79 -1.09,-2.89 -2.71,-5.27 -4.86,-7.15 -2.15,-1.87 -4.75,-2.81 -7.8,-2.81 -5.7,0 -10.21,1.72 -13.53,5.16 -3.32,3.43 -4.98,7.96 -4.98,13.59"
             style="fill:#000000;fill-opacity:1;fill-rule:nonzero;stroke:none"
             id="path5610"
             inkscape:connector-curvature="0" />
          <path
             d="m 1654.33,2782.51 c -5.78,0 -11.09,1.52 -15.94,4.57 -4.84,3.05 -8.65,7.11 -11.43,12.19 -2.76,5.07 -4.15,10.46 -4.15,16.17 0,5.54 1.27,10.82 3.81,15.82 2.53,5 6.05,9.04 10.54,12.13 4.49,3.09 9.55,4.63 15.18,4.63 4.3,0 8.07,-0.72 11.31,-2.17 3.24,-1.44 5.89,-3.47 7.97,-6.1 2.07,-2.61 3.65,-5.68 4.74,-9.19 1.09,-3.52 1.64,-7.39 1.64,-11.6 0,-1.25 -0.51,-1.88 -1.52,-1.88 l -41.25,0 0,-1.52 c 0,-7.9 1.58,-14.67 4.75,-20.33 3.16,-5.67 8.38,-8.5 15.64,-8.5 2.89,0 5.57,0.65 8.03,1.93 2.46,1.29 4.6,3.11 6.44,5.45 1.84,2.35 3.11,4.81 3.81,7.39 0.08,0.39 0.24,0.7 0.47,0.93 0.24,0.23 0.55,0.35 0.94,0.35 l 1.17,0 c 1.01,0 1.52,-0.58 1.52,-1.76 -1.4,-5.38 -4.33,-9.82 -8.79,-13.29 -4.45,-3.48 -9.41,-5.22 -14.88,-5.22 z m -18.98,38.08 32.57,0 c 0,3.6 -0.51,7.23 -1.52,10.91 -1.02,3.67 -2.68,6.71 -4.98,9.13 -2.31,2.43 -5.33,3.64 -9.08,3.64 -5.39,0 -9.57,-2.52 -12.54,-7.56 -2.97,-5.04 -4.45,-10.41 -4.45,-16.12"
             style="fill:#000000;fill-opacity:1;fill-rule:nonzero;stroke:none"
             id="path5612"
             inkscape:connector-curvature="0" />
          <path
             d="m 1732.05,2784.15 0,5.04 c 9.84,0 14.76,1.49 14.76,4.45 l 0,78.28 c 0,3.05 -4.92,4.58 -14.76,4.58 l 0,5.03 78.63,0 3.99,-32.69 -4.11,0 c -0.7,6.01 -1.6,10.74 -2.69,14.18 -1.09,3.44 -2.67,6.15 -4.74,8.14 -2.08,2 -4.87,3.38 -8.38,4.16 -3.52,0.79 -8.33,1.18 -14.42,1.18 l -13.01,0 c -1.71,0 -3.04,-0.08 -3.98,-0.24 -0.94,-0.16 -1.72,-0.57 -2.34,-1.23 -0.63,-0.67 -0.94,-1.7 -0.94,-3.11 l 0,-36.67 10.07,0 c 4.92,0 8.52,0.43 10.79,1.28 2.26,0.86 3.82,2.44 4.69,4.75 0.85,2.3 1.28,5.88 1.28,10.72 l 4.11,0 0,-38.32 -4.11,0 c 0,4.84 -0.43,8.4 -1.28,10.66 -0.87,2.27 -2.43,3.84 -4.69,4.69 -2.27,0.86 -5.87,1.29 -10.79,1.29 l -10.07,0 0,-36.68 c 0,-2.96 6.09,-4.45 18.28,-4.45 l 0,-5.04 -46.29,0"
             style="fill:#000000;fill-opacity:1;fill-rule:nonzero;stroke:none"
             id="path5614"
             inkscape:connector-curvature="0" />
          <path
             d="m 1842.94,2782.51 c -5.78,0 -11.09,1.52 -15.94,4.57 -4.84,3.05 -8.65,7.11 -11.42,12.19 -2.78,5.07 -4.16,10.46 -4.16,16.17 0,5.54 1.27,10.82 3.81,15.82 2.54,5 6.06,9.04 10.54,12.13 4.5,3.09 9.55,4.63 15.18,4.63 4.3,0 8.07,-0.72 11.31,-2.17 3.24,-1.44 5.9,-3.47 7.97,-6.1 2.07,-2.61 3.65,-5.68 4.75,-9.19 1.09,-3.52 1.63,-7.39 1.63,-11.6 0,-1.25 -0.5,-1.88 -1.52,-1.88 l -41.25,0 0,-1.52 c 0,-7.9 1.58,-14.67 4.75,-20.33 3.16,-5.67 8.37,-8.5 15.64,-8.5 2.89,0 5.57,0.65 8.03,1.93 2.45,1.29 4.61,3.11 6.45,5.45 1.83,2.35 3.1,4.81 3.8,7.39 0.08,0.39 0.24,0.7 0.47,0.93 0.23,0.23 0.55,0.35 0.94,0.35 l 1.17,0 c 1.02,0 1.52,-0.58 1.52,-1.76 -1.4,-5.38 -4.33,-9.82 -8.79,-13.29 -4.45,-3.48 -9.41,-5.22 -14.88,-5.22 z m -18.98,38.08 32.58,0 c 0,3.6 -0.51,7.23 -1.53,10.91 -1.02,3.67 -2.68,6.71 -4.98,9.13 -2.31,2.43 -5.33,3.64 -9.08,3.64 -5.4,0 -9.57,-2.52 -12.54,-7.56 -2.96,-5.04 -4.45,-10.41 -4.45,-16.12"
             style="fill:#000000;fill-opacity:1;fill-rule:nonzero;stroke:none"
             id="path5616"
             inkscape:connector-curvature="0" />
          <path
             d="m 1905.16,2782.51 c -5.78,0 -11.09,1.52 -15.94,4.57 -4.84,3.05 -8.64,7.11 -11.42,12.19 -2.77,5.07 -4.16,10.46 -4.16,16.17 0,5.54 1.27,10.82 3.81,15.82 2.54,5 6.05,9.04 10.54,12.13 4.5,3.09 9.56,4.63 15.19,4.63 4.29,0 8.06,-0.72 11.3,-2.17 3.24,-1.44 5.9,-3.47 7.97,-6.1 2.07,-2.61 3.65,-5.68 4.75,-9.19 1.09,-3.52 1.64,-7.39 1.64,-11.6 0,-1.25 -0.51,-1.88 -1.53,-1.88 l -41.25,0 0,-1.52 c 0,-7.9 1.58,-14.67 4.74,-20.33 3.17,-5.67 8.39,-8.5 15.65,-8.5 2.89,0 5.57,0.65 8.03,1.93 2.47,1.29 4.61,3.11 6.45,5.45 1.83,2.35 3.1,4.81 3.81,7.39 0.07,0.39 0.22,0.7 0.46,0.93 0.24,0.23 0.55,0.35 0.94,0.35 l 1.17,0 c 1.02,0 1.53,-0.58 1.53,-1.76 -1.41,-5.38 -4.34,-9.82 -8.79,-13.29 -4.46,-3.48 -9.42,-5.22 -14.89,-5.22 z m -18.98,38.08 32.58,0 c 0,3.6 -0.51,7.23 -1.52,10.91 -1.02,3.67 -2.68,6.71 -4.98,9.13 -2.31,2.43 -5.33,3.64 -9.08,3.64 -5.39,0 -9.57,-2.52 -12.55,-7.56 -2.97,-5.04 -4.45,-10.41 -4.45,-16.12"
             style="fill:#000000;fill-opacity:1;fill-rule:nonzero;stroke:none"
             id="path5618"
             inkscape:connector-curvature="0" />
          <path
             d="m 1966.68,2782.51 c -5.62,0 -10.76,1.52 -15.41,4.57 -4.65,3.05 -8.26,7.05 -10.84,12.01 -2.57,4.96 -3.87,10.21 -3.87,15.77 0,5.78 1.41,11.14 4.23,16.1 2.81,4.97 6.64,8.89 11.48,11.79 4.84,2.89 10.16,4.33 15.94,4.33 3.43,0 6.71,-0.72 9.84,-2.17 3.12,-1.44 5.82,-3.45 8.09,-6.03 l 0,29.64 c 0,2.5 -0.37,4.32 -1.12,5.46 -0.74,1.13 -1.83,1.83 -3.28,2.11 -1.44,0.27 -3.65,0.41 -6.62,0.41 l 0,5.03 21.09,1.53 0,-86.02 c 0,-2.5 0.37,-4.31 1.12,-5.45 0.74,-1.13 1.81,-1.81 3.22,-2.05 1.41,-0.23 3.63,-0.35 6.68,-0.35 l 0,-5.04 -21.44,-1.64 0,9.02 c -2.5,-2.81 -5.45,-5.01 -8.85,-6.62 -3.4,-1.6 -6.82,-2.4 -10.26,-2.4 z m -14.53,14.06 c 1.64,-3.12 3.81,-5.62 6.51,-7.5 2.7,-1.87 5.64,-2.81 8.84,-2.81 3.91,0 7.52,1.15 10.85,3.45 3.32,2.31 5.79,5.26 7.44,8.86 l 0,34.1 c -1.18,2.11 -2.61,3.98 -4.29,5.62 -1.68,1.64 -3.57,2.91 -5.67,3.81 -2.12,0.9 -4.34,1.35 -6.69,1.35 -5,0 -9,-1.41 -12.01,-4.22 -3,-2.82 -5.11,-6.41 -6.33,-10.78 -1.21,-4.38 -1.82,-8.95 -1.82,-13.72 0,-3.75 0.2,-7.05 0.6,-9.89 0.38,-2.86 1.24,-5.61 2.57,-8.27"
             style="fill:#000000;fill-opacity:1;fill-rule:nonzero;stroke:none"
             id="path5620"
             inkscape:connector-curvature="0" />
          <path
             d="m 2024.42,2784.15 0,84.37 c 0,2.5 -0.37,4.32 -1.11,5.46 -0.74,1.13 -1.84,1.83 -3.29,2.11 -1.44,0.27 -3.69,0.41 -6.73,0.41 l 0,5.03 21.1,1.53 0,-44.65 c 1.64,1.8 3.51,3.36 5.62,4.68 2.11,1.33 4.35,2.33 6.74,3 2.38,0.66 4.82,0.99 7.32,0.99 4.3,0 8.26,-0.86 11.89,-2.58 3.64,-1.72 6.8,-4.08 9.5,-7.09 2.69,-3 4.8,-6.46 6.33,-10.37 1.52,-3.9 2.28,-7.97 2.28,-12.18 0,-5.71 -1.4,-11.04 -4.22,-16 -2.81,-4.96 -6.64,-8.93 -11.48,-11.9 -4.85,-2.97 -10.16,-4.45 -15.94,-4.45 -3.67,0 -7.19,0.94 -10.54,2.81 -3.36,1.88 -6.18,4.34 -8.44,7.39 l -4.81,-8.56 -4.22,0 z m 10.43,13.94 c 1.57,-3.43 3.83,-6.26 6.79,-8.49 2.98,-2.23 6.26,-3.34 9.85,-3.34 4.92,0 8.91,1.42 11.96,4.28 3.04,2.85 5.17,6.42 6.38,10.72 1.21,4.3 1.82,8.83 1.82,13.6 0,8.04 -1.06,14.17 -3.17,18.39 -0.93,1.8 -2.2,3.5 -3.8,5.1 -1.61,1.6 -3.38,2.85 -5.33,3.75 -1.96,0.9 -4.03,1.35 -6.21,1.35 -3.84,0 -7.37,-1.02 -10.62,-3.05 -3.23,-2.03 -5.79,-4.72 -7.67,-8.08 l 0,-34.23"
             style="fill:#000000;fill-opacity:1;fill-rule:nonzero;stroke:none"
             id="path5622"
             inkscape:connector-curvature="0" />
          <path
             d="m 2093.18,2798.09 c 0,5.71 2.22,10.34 6.68,13.89 4.45,3.56 9.78,6.06 15.99,7.5 6.21,1.45 12.13,2.17 17.76,2.17 l 0,5.86 c 0,2.73 -0.61,5.39 -1.82,7.97 -1.21,2.57 -2.95,4.68 -5.21,6.33 -2.27,1.64 -4.77,2.46 -7.5,2.46 -6.33,0 -11.14,-1.41 -14.42,-4.22 1.8,0 3.3,-0.69 4.51,-2.05 1.21,-1.37 1.82,-2.95 1.82,-4.75 0,-1.95 -0.69,-3.59 -2.05,-4.92 -1.37,-1.33 -2.95,-1.99 -4.75,-1.99 -1.95,0 -3.59,0.66 -4.92,1.99 -1.32,1.33 -1.99,2.97 -1.99,4.92 0,5 2.27,8.71 6.8,11.13 4.53,2.43 9.53,3.64 15,3.64 3.82,0 7.69,-0.82 11.6,-2.46 3.91,-1.65 7.11,-3.99 9.61,-7.04 2.5,-3.04 3.75,-6.63 3.75,-10.77 l 0,-32 c 0,-1.87 0.39,-3.59 1.17,-5.16 0.78,-1.56 1.99,-2.34 3.63,-2.34 1.56,0 2.73,0.78 3.52,2.34 0.78,1.57 1.17,3.29 1.17,5.16 l 0,9.02 4.22,0 0,-9.02 c 0,-2.19 -0.57,-4.24 -1.71,-6.15 -1.13,-1.91 -2.63,-3.44 -4.5,-4.57 -1.88,-1.13 -3.91,-1.7 -6.1,-1.7 -2.73,0 -5.11,1.08 -7.15,3.22 -2.03,2.15 -3.16,4.71 -3.4,7.68 -1.79,-3.59 -4.39,-6.45 -7.79,-8.56 -3.4,-2.11 -7.05,-3.16 -10.96,-3.16 -3.67,0 -7.24,0.54 -10.72,1.64 -3.47,1.1 -6.38,2.78 -8.73,5.04 -2.34,2.27 -3.51,5.23 -3.51,8.9 z m 11.48,0 c 0,-3.28 1.23,-6.07 3.69,-8.38 2.46,-2.3 5.37,-3.45 8.73,-3.45 3.05,0 5.83,0.78 8.33,2.35 2.5,1.55 4.49,3.64 5.97,6.27 1.48,2.61 2.23,5.4 2.23,8.37 l 0,14.77 c -4.3,0 -8.71,-0.7 -13.24,-2.11 -4.54,-1.41 -8.29,-3.61 -11.25,-6.62 -2.97,-3.01 -4.46,-6.74 -4.46,-11.2"
             style="fill:#000000;fill-opacity:1;fill-rule:nonzero;stroke:none"
             id="path5624"
             inkscape:connector-curvature="0" />
          <path
             d="m 2192.95,2782.51 c -5.79,0 -11.02,1.5 -15.71,4.51 -4.69,3.01 -8.38,7.01 -11.08,12.01 -2.7,5 -4.04,10.27 -4.04,15.83 0,5.62 1.34,11.01 4.04,16.16 2.7,5.16 6.39,9.28 11.08,12.37 4.69,3.09 9.92,4.63 15.71,4.63 5.54,0 10.6,-1.09 15.17,-3.29 4.57,-2.18 6.85,-5.73 6.85,-10.66 0,-1.87 -0.66,-3.5 -1.99,-4.86 -1.33,-1.37 -2.93,-2.05 -4.8,-2.05 -1.88,0 -3.48,0.68 -4.81,2.05 -1.33,1.36 -1.99,2.99 -1.99,4.86 0,1.64 0.53,3.09 1.58,4.34 1.06,1.25 2.37,2.03 3.93,2.34 -3.28,2.03 -7.89,3.05 -13.84,3.05 -4.52,0 -8.17,-1.5 -10.95,-4.51 -2.77,-3.01 -4.72,-6.74 -5.86,-11.2 -1.13,-4.45 -1.69,-8.86 -1.69,-13.23 0,-4.54 0.68,-8.95 2.04,-13.25 1.37,-4.29 3.58,-7.85 6.62,-10.66 3.05,-2.81 6.88,-4.22 11.49,-4.22 4.45,0 8.26,1.39 11.43,4.16 3.16,2.77 5.33,6.38 6.5,10.84 0,0.54 0.35,0.82 1.05,0.82 l 1.77,0 c 0.3,0 0.58,-0.14 0.81,-0.41 0.24,-0.27 0.35,-0.57 0.35,-0.88 l 0,-0.35 c -1.48,-5.63 -4.35,-10.1 -8.61,-13.42 -4.26,-3.32 -9.28,-4.98 -15.05,-4.98"
             style="fill:#000000;fill-opacity:1;fill-rule:nonzero;stroke:none"
             id="path5626"
             inkscape:connector-curvature="0" />
          <path
             d="m 2219.4,2784.15 0,5.04 c 3.28,0 5.96,0.26 8.03,0.77 2.07,0.5 3.11,1.73 3.11,3.68 l 0,74.88 c 0,2.5 -0.38,4.32 -1.12,5.46 -0.74,1.13 -1.83,1.83 -3.28,2.11 -1.44,0.27 -3.69,0.41 -6.74,0.41 l 0,5.03 21.09,1.53 0,-67.62 19.22,16.76 c 1.88,1.8 2.82,3.44 2.82,4.92 0,1.17 -0.39,2.05 -1.18,2.63 -0.78,0.59 -1.72,0.88 -2.81,0.88 l 0,4.93 26.72,0 0,-4.93 c -6.4,0 -12.85,-2.81 -19.33,-8.43 l -10.2,-8.91 18.16,-25.66 c 2.5,-3.6 4.61,-5.9 6.33,-6.92 1.72,-1.01 4.53,-1.52 8.44,-1.52 l 0,-5.04 -28.48,0 0,5.04 c 3.28,0 4.92,0.98 4.92,2.93 0,1.48 -0.86,3.32 -2.57,5.51 l -13.72,19.45 -8.67,-7.5 0,-15.94 c 0,-1.95 1.06,-3.18 3.16,-3.68 2.12,-0.51 4.77,-0.77 7.98,-0.77 l 0,-5.04 -31.88,0"
             style="fill:#000000;fill-opacity:1;fill-rule:nonzero;stroke:none"
             id="path5628"
             inkscape:connector-curvature="0" />
          <path
             d="m 2341.36,2784.15 0,5.04 c 9.77,0 14.65,2.81 14.65,8.44 l 0,74.29 c 0,3.05 -4.88,4.58 -14.65,4.58 l 0,5.03 26.96,0 c 1.09,0 1.83,-0.55 2.22,-1.64 l 31.05,-80.62 31.06,80.62 c 0.39,1.09 1.14,1.64 2.23,1.64 l 26.96,0 0,-5.03 c -9.77,0 -14.65,-1.53 -14.65,-4.58 l 0,-78.28 c 0,-2.96 4.88,-4.45 14.65,-4.45 l 0,-5.04 -41.5,0 0,5.04 c 9.85,0 14.77,1.49 14.77,4.45 l 0,82.97 -35.15,-90.82 c -0.39,-1.09 -1.17,-1.64 -2.35,-1.64 -1.17,0 -1.99,0.55 -2.46,1.64 l -34.56,89.77 0,-77.93 c 0,-5.63 4.87,-8.44 14.64,-8.44 l 0,-5.04 -33.87,0"
             style="fill:#000000;fill-opacity:1;fill-rule:nonzero;stroke:none"
             id="path5630"
             inkscape:connector-curvature="0" />
          <path
             d="m 2470.4,2798.09 c 0,5.71 2.23,10.34 6.68,13.89 4.45,3.56 9.78,6.06 15.99,7.5 6.22,1.45 12.14,2.17 17.76,2.17 l 0,5.86 c 0,2.73 -0.61,5.39 -1.82,7.97 -1.21,2.57 -2.95,4.68 -5.21,6.33 -2.27,1.64 -4.77,2.46 -7.5,2.46 -6.33,0 -11.13,-1.41 -14.42,-4.22 1.8,0 3.31,-0.69 4.52,-2.05 1.21,-1.37 1.81,-2.95 1.81,-4.75 0,-1.95 -0.68,-3.59 -2.05,-4.92 -1.37,-1.33 -2.95,-1.99 -4.74,-1.99 -1.96,0 -3.6,0.66 -4.92,1.99 -1.33,1.33 -2,2.97 -2,4.92 0,5 2.27,8.71 6.8,11.13 4.53,2.43 9.53,3.64 15,3.64 3.83,0 7.69,-0.82 11.6,-2.46 3.9,-1.65 7.11,-3.99 9.61,-7.04 2.5,-3.04 3.75,-6.63 3.75,-10.77 l 0,-32 c 0,-1.87 0.39,-3.59 1.17,-5.16 0.78,-1.56 2,-2.34 3.63,-2.34 1.57,0 2.74,0.78 3.52,2.34 0.78,1.57 1.17,3.29 1.17,5.16 l 0,9.02 4.21,0 0,-9.02 c 0,-2.19 -0.56,-4.24 -1.69,-6.15 -1.13,-1.91 -2.64,-3.44 -4.51,-4.57 -1.88,-1.13 -3.91,-1.7 -6.09,-1.7 -2.74,0 -5.12,1.08 -7.15,3.22 -2.04,2.15 -3.17,4.71 -3.4,7.68 -1.8,-3.59 -4.4,-6.45 -7.8,-8.56 -3.39,-2.11 -7.04,-3.16 -10.95,-3.16 -3.67,0 -7.25,0.54 -10.72,1.64 -3.48,1.1 -6.39,2.78 -8.73,5.04 -2.35,2.27 -3.52,5.23 -3.52,8.9 z m 11.48,0 c 0,-3.28 1.23,-6.07 3.69,-8.38 2.47,-2.3 5.38,-3.45 8.74,-3.45 3.05,0 5.82,0.78 8.32,2.35 2.5,1.55 4.49,3.64 5.98,6.27 1.48,2.61 2.22,5.4 2.22,8.37 l 0,14.77 c -4.3,0 -8.71,-0.7 -13.24,-2.11 -4.54,-1.41 -8.29,-3.61 -11.25,-6.62 -2.97,-3.01 -4.46,-6.74 -4.46,-11.2"
             style="fill:#000000;fill-opacity:1;fill-rule:nonzero;stroke:none"
             id="path5632"
             inkscape:connector-curvature="0" />
          <path
             d="m 2549.19,2801.26 0,39.37 -11.84,0 0,3.64 c 6.25,0 10.84,2.89 13.77,8.67 2.93,5.78 4.4,12.07 4.4,18.87 l 4.1,0 0,-26.25 20.04,0 0,-4.93 -20.04,0 0,-39.13 c 0,-3.91 0.65,-7.35 1.93,-10.32 1.29,-2.97 3.66,-4.45 7.09,-4.45 3.28,0 5.65,1.56 7.09,4.69 1.45,3.12 2.17,6.48 2.17,10.08 l 0,8.43 4.1,0 0,-8.67 c 0,-2.97 -0.55,-5.9 -1.64,-8.79 -1.09,-2.89 -2.71,-5.27 -4.86,-7.15 -2.15,-1.87 -4.75,-2.81 -7.8,-2.81 -5.7,0 -10.21,1.72 -13.53,5.16 -3.32,3.43 -4.98,7.96 -4.98,13.59"
             style="fill:#000000;fill-opacity:1;fill-rule:nonzero;stroke:none"
             id="path5634"
             inkscape:connector-curvature="0" />
          <path
             d="m 2592.73,2784.15 0,5.04 c 3.29,0 5.97,0.26 8.04,0.77 2.07,0.5 3.1,1.73 3.1,3.68 l 0,38.91 c 0,2.58 -0.37,4.43 -1.12,5.56 -0.74,1.14 -1.83,1.84 -3.28,2.12 -1.44,0.27 -3.69,0.4 -6.74,0.4 l 0,4.93 20.4,1.52 0,-13.83 c 1.56,4.06 3.75,7.38 6.56,9.96 2.81,2.58 6.25,3.87 10.31,3.87 2.81,0 5.34,-0.82 7.56,-2.46 2.23,-1.64 3.34,-3.83 3.34,-6.56 0,-1.72 -0.61,-3.22 -1.82,-4.51 -1.21,-1.3 -2.71,-1.94 -4.51,-1.94 -1.8,0 -3.32,0.62 -4.57,1.87 -1.25,1.25 -1.87,2.78 -1.87,4.58 0,2.5 0.89,4.3 2.69,5.39 l -0.82,0 c -3.82,0 -6.95,-1.39 -9.37,-4.16 -2.43,-2.77 -4.17,-6.23 -5.22,-10.37 -1.05,-4.14 -1.58,-8.09 -1.58,-11.84 l 0,-23.44 c 0,-2.96 4.65,-4.45 13.94,-4.45 l 0,-5.04 -35.04,0"
             style="fill:#000000;fill-opacity:1;fill-rule:nonzero;stroke:none"
             id="path5636"
             inkscape:connector-curvature="0" />
          <path
             d="m 2648.27,2784.15 0,5.04 c 3.28,0 5.96,0.26 8.03,0.77 2.07,0.5 3.11,1.73 3.11,3.68 l 0,38.91 c 0,3.67 -0.71,5.94 -2.12,6.79 -1.4,0.86 -4.18,1.29 -8.32,1.29 l 0,4.93 20.51,1.52 0,-53.44 c 0,-1.95 0.9,-3.18 2.7,-3.68 1.79,-0.51 4.22,-0.77 7.27,-0.77 l 0,-5.04 -31.18,0 z m 6.1,87.42 c 0,2.11 0.78,3.95 2.34,5.51 1.56,1.56 3.4,2.34 5.51,2.34 1.32,0 2.61,-0.33 3.86,-0.99 1.25,-0.66 2.23,-1.62 2.94,-2.87 0.7,-1.25 1.05,-2.58 1.05,-3.99 0,-2.03 -0.8,-3.82 -2.41,-5.39 -1.6,-1.56 -3.41,-2.34 -5.44,-2.34 -2.11,0 -3.95,0.78 -5.51,2.34 -1.57,1.57 -2.34,3.36 -2.34,5.39"
             style="fill:#000000;fill-opacity:1;fill-rule:nonzero;stroke:none"
             id="path5638"
             inkscape:connector-curvature="0" />
          <path
             d="m 2684.59,2784.15 0,5.04 c 3.59,0 6.99,0.7 10.19,2.11 3.2,1.4 5.93,3.51 8.2,6.33 l 12.9,16.4 -16.88,21.92 c -1.64,2.1 -3.44,3.41 -5.39,3.93 -1.96,0.5 -4.73,0.75 -8.32,0.75 l 0,4.93 29.65,0 0,-4.93 c -1.25,0 -2.42,-0.29 -3.52,-0.88 -1.1,-0.58 -1.64,-1.38 -1.64,-2.39 0,-0.4 0.11,-0.86 0.35,-1.41 l 11.48,-14.77 8.56,11.02 c 1.17,1.41 1.76,2.77 1.76,4.1 0,1.17 -0.39,2.19 -1.18,3.04 -0.78,0.86 -1.79,1.29 -3.04,1.29 l 0,4.93 26.25,0 0,-4.93 c -3.67,0 -7.13,-0.72 -10.37,-2.17 -3.24,-1.44 -5.96,-3.53 -8.15,-6.26 l -11.25,-14.42 18.17,-24.14 c 1.79,-2.03 3.67,-3.28 5.62,-3.75 1.96,-0.46 4.77,-0.7 8.44,-0.7 l 0,-5.04 -29.65,0 0,5.04 c 1.17,0 2.28,0.27 3.34,0.82 1.05,0.55 1.58,1.37 1.58,2.46 0,0.39 -0.15,0.78 -0.46,1.17 l -12.78,16.99 -10.2,-13 c -1.09,-1.25 -1.64,-2.66 -1.64,-4.22 0,-1.18 0.39,-2.17 1.18,-2.99 0.78,-0.82 1.72,-1.23 2.81,-1.23 l 0,-5.04 -26.01,0"
             style="fill:#000000;fill-opacity:1;fill-rule:nonzero;stroke:none"
             id="path5640"
             inkscape:connector-curvature="0" />
          <path
             d="m 2810.06,2784.15 c -0.93,0 -1.4,0.62 -1.4,1.87 0.07,0.24 0.17,0.65 0.29,1.23 0.11,0.59 0.31,1.06 0.59,1.41 0.27,0.36 0.6,0.53 0.99,0.53 5.78,0 9.81,0.31 12.07,0.94 1.25,0.39 2.15,1.68 2.69,3.87 l 19.58,78.27 c 0.15,0.94 0.23,1.57 0.23,1.88 0,1.01 -0.58,1.6 -1.76,1.76 -1.71,0.39 -5.12,0.59 -10.2,0.59 -0.93,0 -1.4,0.62 -1.4,1.87 0.08,0.23 0.17,0.64 0.3,1.23 0.11,0.59 0.3,1.06 0.58,1.4 0.27,0.36 0.61,0.53 1,0.53 l 75.23,0 c 0.94,0 1.41,-0.62 1.41,-1.87 l -3.4,-29.53 c 0,-0.32 -0.16,-0.61 -0.47,-0.88 -0.32,-0.27 -0.67,-0.41 -1.06,-0.41 l -1.17,0 c -1.01,0 -1.52,0.62 -1.52,1.87 0.63,4.3 0.94,7.81 0.94,10.55 0,4.69 -1.02,8.15 -3.05,10.37 -2.03,2.23 -4.61,3.59 -7.74,4.1 -3.12,0.51 -7.42,0.77 -12.88,0.77 l -15.24,0 c -2.58,0 -4.29,-0.22 -5.15,-0.65 -0.87,-0.43 -1.61,-1.85 -2.23,-4.28 l -9.15,-36.32 10.67,0 c 3.51,0 6.37,0.19 8.56,0.58 2.18,0.39 4,1.12 5.44,2.17 1.45,1.05 2.64,2.6 3.58,4.63 0.93,2.03 1.79,4.72 2.58,8.08 0.31,0.86 0.82,1.29 1.52,1.29 l 1.29,0 c 0.93,0 1.4,-0.62 1.4,-1.87 l -8.66,-35.27 c -0.48,-0.79 -0.98,-1.18 -1.53,-1.18 l -1.17,0 c -0.94,0 -1.41,0.63 -1.41,1.88 0.24,0.94 0.41,1.74 0.53,2.4 0.11,0.67 0.29,1.6 0.53,2.81 0.23,1.21 0.35,2.29 0.35,3.23 0,2.73 -1.21,4.46 -3.64,5.21 -2.41,0.74 -5.58,1.11 -9.48,1.11 l -11.73,0 -9.25,-36.91 c -0.24,-0.94 -0.35,-1.41 -0.35,-1.41 0,-1.09 0.34,-1.72 1.05,-1.87 2.5,-0.63 7.34,-0.94 14.53,-0.94 0.94,0 1.41,-0.62 1.41,-1.87 -0.32,-1.34 -0.57,-2.19 -0.76,-2.59 -0.2,-0.39 -0.76,-0.58 -1.71,-0.58 l -41.83,0"
             style="fill:#000000;fill-opacity:1;fill-rule:nonzero;stroke:none"
             id="path5642"
             inkscape:connector-curvature="0" />
          <path
             d="m 539.625,2622.29 2106.535,0 217.74,0 217.78,-0.04 217.77,-1.14 217.77,-9.5 217.78,-118.88"
             style="fill:none;stroke:#0072bd;stroke-width:20.00250053;stroke-linecap:butt;stroke-linejoin:round;stroke-miterlimit:10;stroke-dasharray:none;stroke-opacity:1"
             id="path5644"
             inkscape:connector-curvature="0" />
          <path
             d="m 539.625,2469.07 2106.535,0 217.74,-0.01 217.78,-0.01 217.77,-0.96 217.77,-30.84 217.78,55.48"
             style="fill:none;stroke:#d95319;stroke-width:20.00250053;stroke-linecap:butt;stroke-linejoin:round;stroke-miterlimit:10;stroke-dasharray:none;stroke-opacity:1"
             id="path5646"
             inkscape:connector-curvature="0" />
          <path
             d="m 539.625,2390.98 1017.655,0 217.77,0 217.78,-0.01 217.78,-0.08 217.78,-0.5 217.77,-0.73 217.74,-2.2 217.78,-24.25 217.77,-63.03 L 3517.22,2235 3735,1526.25"
             style="fill:none;stroke:#edb120;stroke-width:20.00250053;stroke-linecap:butt;stroke-linejoin:round;stroke-miterlimit:10;stroke-dasharray:none;stroke-opacity:1"
             id="path5648"
             inkscape:connector-curvature="0" />
          <path
             d="m 539.625,1958.62 1017.655,0 217.77,-0.02 217.78,-0.01 217.78,-0.02 217.78,-0.66 217.77,-1.85 217.74,0.39 217.78,-20.62 217.77,-124.45 217.77,-48.88 217.78,-236.25"
             style="fill:none;stroke:#7e2f8e;stroke-width:20.00250053;stroke-linecap:butt;stroke-linejoin:round;stroke-miterlimit:10;stroke-dasharray:none;stroke-opacity:1"
             id="path5650"
             inkscape:connector-curvature="0" />
          <path
             d="m 539.625,2176.64 146.594,-0.03 217.769,-0.04 217.742,-0.27 217.77,-0.93 217.78,-0.97 217.77,-0.8 217.78,-7.41 217.78,-21.78 217.78,-18.75 217.77,-21.91 217.74,-169.16 217.78,-305.54 217.77,-108.32 L 3517.22,1196.6 3735,559.77"
             style="fill:none;stroke:#77ac30;stroke-width:20.00250053;stroke-linecap:butt;stroke-linejoin:round;stroke-miterlimit:10;stroke-dasharray:none;stroke-opacity:1"
             id="path5652"
             inkscape:connector-curvature="0" />
          <path
             d="m 539.625,1608.73 146.594,-0.06 217.769,-0.02 217.742,-0.1 217.77,-1.05 217.78,-1.91 217.77,-0.2 217.78,-3.26 217.78,-26.25 217.78,-38.2 217.77,1.01 217.74,-88.14 217.78,-365.76 217.77,-143.645 217.77,-19.25 L 3735,559.77"
             style="fill:none;stroke:#4dbeee;stroke-width:20.00250053;stroke-linecap:butt;stroke-linejoin:round;stroke-miterlimit:10;stroke-dasharray:none;stroke-opacity:1"
             id="path5654"
             inkscape:connector-curvature="0" />
          <path
             d="m 652.5,457.5 727.5,0 0,727.5 -727.5,0 0,-727.5 z"
             style="fill:#ffffff;fill-opacity:1;fill-rule:nonzero;stroke:none"
             id="path5656"
             inkscape:connector-curvature="0" />
          <g
             id="g5658"
             transform="scale(10,10)">
            <text
               transform="matrix(1,0,0,-1,100.5,107.963)"
               style="font-variant:normal;font-weight:normal;font-size:9px;font-family:Helvetica;-inkscape-font-specification:Helvetica;writing-mode:lr-tb;fill:#000000;fill-opacity:1;fill-rule:nonzero;stroke:none"
               id="text5660">
              <tspan
                 x="0 6.4980001 9 14.256 16.757999 21.761999 24.264"
                 y="0"
                 sodipodi:role="line"
                 id="tspan5662">R = 0.1</tspan>
            </text>
          </g>
          <path
             d="m 682.5,1113.38 300,0"
             style="fill:none;stroke:#0072bd;stroke-width:20.00250053;stroke-linecap:butt;stroke-linejoin:round;stroke-miterlimit:10;stroke-dasharray:none;stroke-opacity:1"
             id="path5664"
             inkscape:connector-curvature="0" />
          <g
             id="g5666"
             transform="scale(10,10)">
            <text
               transform="matrix(1,0,0,-1,100.5,96.2777)"
               style="font-variant:normal;font-weight:normal;font-size:9px;font-family:Helvetica;-inkscape-font-specification:Helvetica;writing-mode:lr-tb;fill:#000000;fill-opacity:1;fill-rule:nonzero;stroke:none"
               id="text5668">
              <tspan
                 x="0 6.4980001 9 14.256 16.757999 21.761999 24.264"
                 y="0"
                 sodipodi:role="line"
                 id="tspan5670">R = 0.1</tspan>
            </text>
          </g>
          <path
             d="m 682.5,996.523 300,0"
             style="fill:none;stroke:#d95319;stroke-width:20.00250053;stroke-linecap:butt;stroke-linejoin:round;stroke-miterlimit:10;stroke-dasharray:none;stroke-opacity:1"
             id="path5672"
             inkscape:connector-curvature="0" />
          <g
             id="g5674"
             transform="scale(10,10)">
            <text
               transform="matrix(1,0,0,-1,100.5,84.5926)"
               style="font-variant:normal;font-weight:normal;font-size:9px;font-family:Helvetica;-inkscape-font-specification:Helvetica;writing-mode:lr-tb;fill:#000000;fill-opacity:1;fill-rule:nonzero;stroke:none"
               id="text5676">
              <tspan
                 x="0 6.4980001 9 14.256 16.757999"
                 y="0"
                 sodipodi:role="line"
                 id="tspan5678">R = 1</tspan>
            </text>
          </g>
          <path
             d="m 682.5,879.676 300,0"
             style="fill:none;stroke:#edb120;stroke-width:20.00250053;stroke-linecap:butt;stroke-linejoin:round;stroke-miterlimit:10;stroke-dasharray:none;stroke-opacity:1"
             id="path5680"
             inkscape:connector-curvature="0" />
          <g
             id="g5682"
             transform="scale(10,10)">
            <text
               transform="matrix(1,0,0,-1,100.5,72.9074)"
               style="font-variant:normal;font-weight:normal;font-size:9px;font-family:Helvetica;-inkscape-font-specification:Helvetica;writing-mode:lr-tb;fill:#000000;fill-opacity:1;fill-rule:nonzero;stroke:none"
               id="text5684">
              <tspan
                 x="0 6.4980001 9 14.256 16.757999"
                 y="0"
                 sodipodi:role="line"
                 id="tspan5686">R = 1</tspan>
            </text>
          </g>
          <path
             d="m 682.5,762.824 300,0"
             style="fill:none;stroke:#7e2f8e;stroke-width:20.00250053;stroke-linecap:butt;stroke-linejoin:round;stroke-miterlimit:10;stroke-dasharray:none;stroke-opacity:1"
             id="path5688"
             inkscape:connector-curvature="0" />
          <g
             id="g5690"
             transform="scale(10,10)">
            <text
               transform="matrix(1,0,0,-1,100.5,61.2223)"
               style="font-variant:normal;font-weight:normal;font-size:9px;font-family:Helvetica;-inkscape-font-specification:Helvetica;writing-mode:lr-tb;fill:#000000;fill-opacity:1;fill-rule:nonzero;stroke:none"
               id="text5692">
              <tspan
                 x="0 6.4980001 9 14.256 16.757999 21.761999"
                 y="0"
                 sodipodi:role="line"
                 id="tspan5694">R = 10</tspan>
            </text>
          </g>
          <path
             d="m 682.5,645.977 300,0"
             style="fill:none;stroke:#77ac30;stroke-width:20.00250053;stroke-linecap:butt;stroke-linejoin:round;stroke-miterlimit:10;stroke-dasharray:none;stroke-opacity:1"
             id="path5696"
             inkscape:connector-curvature="0" />
          <g
             id="g5698"
             transform="scale(10,10)">
            <text
               transform="matrix(1,0,0,-1,100.5,49.5371)"
               style="font-variant:normal;font-weight:normal;font-size:9px;font-family:Helvetica;-inkscape-font-specification:Helvetica;writing-mode:lr-tb;fill:#000000;fill-opacity:1;fill-rule:nonzero;stroke:none"
               id="text5700">
              <tspan
                 x="0 6.4980001 9 14.256 16.757999 21.761999"
                 y="0"
                 sodipodi:role="line"
                 id="tspan5702">R = 10</tspan>
            </text>
          </g>
          <path
             d="m 682.5,529.117 300,0"
             style="fill:none;stroke:#4dbeee;stroke-width:20.00250053;stroke-linecap:butt;stroke-linejoin:round;stroke-miterlimit:10;stroke-dasharray:none;stroke-opacity:1"
             id="path5704"
             inkscape:connector-curvature="0" />
          <path
             d="m 652.5,457.5 727.5,0 0,727.5 -727.5,0 0,-727.5 z"
             style="fill:none;stroke:#262626;stroke-width:5.00250006;stroke-linecap:butt;stroke-linejoin:miter;stroke-miterlimit:10;stroke-dasharray:none;stroke-opacity:1"
             id="path5706"
             inkscape:connector-curvature="0" />
        </g>
      </g>
      <rect
         y="195.72247"
         x="527.26929"
         height="348.66489"
         width="281.38766"
         id="rect6677"
         style="opacity:1;fill:none;fill-opacity:1;stroke:#000000;stroke-width:2;stroke-linecap:round;stroke-linejoin:round;stroke-miterlimit:4;stroke-dasharray:none;stroke-dashoffset:0;stroke-opacity:1" />
      <path
         style="fill:none;fill-rule:evenodd;stroke:#808080;stroke-width:2;stroke-linecap:round;stroke-linejoin:miter;stroke-miterlimit:4;stroke-dasharray:none;stroke-opacity:1;marker-end:url(#Arrow2Lend)"
         d="m 501.03566,135.14369 c 39.83858,3.23479 68.58404,20.33597 86.87312,50.50763"
         id="path6886"
         inkscape:connector-curvature="0"
         sodipodi:nodetypes="cc" />
    </g>
    <ellipse
       style="opacity:1;fill:none;fill-opacity:1;stroke:#000000;stroke-width:1;stroke-linecap:round;stroke-linejoin:round;stroke-miterlimit:4;stroke-dasharray:1, 2;stroke-dashoffset:0;stroke-opacity:1"
       id="path6682"
       cx="447.49759"
       cy="217.9762"
       rx="20.203051"
       ry="177.78685" />
  </g>
</svg>
